<?xml version="1.0" encoding="UTF-8"?>
<svg id="Layer_1" data-name="Layer 1" xmlns="http://www.w3.org/2000/svg" viewBox="0 0 504.13 360">
  <defs>
    <style>
      .cls-1 {
        fill: none;
        fill-rule: evenodd;
      }
    </style>
  </defs>
  <path class="cls-1" d="M0,0h504v220.32c-8.01-4.38-19.52-8.91-30.48-9.84.57-16.24-.9-32.87-12.24-38.64-4.56-1.6-9.12-3.2-13.68-4.8-2.36-1.08-3.63-3.33-6.48-4.32-3.26-1.14-9.71-1.55-11.28-4.32-4.29-7.58,2.75-22.97,6.48-25.44,3.99-2.65,9.53-.94,10.08-7.2-2.08-4.84-7.35-4.75-12.72-6.24-8.88-2.64-17.76-5.28-26.64-7.92-2.07-.65-4.55-.66-6-1.92,2.17-1.61,3.9-2.32,5.04-5.04-.69-7.38-7.74-4.52-12.48-7.68-3.27-2.18-4.97-7.38-5.76-12-1.25-7.31,1.26-15.64,4.8-18.48,3.39-2.72,7.31-1.43,7.44-7.68-2.87-5.37-13.28-5.17-19.92-6.72-17.76-3.68-35.52-7.36-53.28-11.04-18.64-4.32-37.28-8.64-55.92-12.96-13.85-2.4-35.95,8.13-45.84,12-11.12,3.84-22.24,7.68-33.36,11.52-21.92,8.16-43.84,16.32-65.76,24.48-9.29,3.42-18.42,7.28-27.36,10.56-3.2.72-6.4,1.44-9.6,2.16-11.52,4.64-23.9,16.07-19.44,34.56,1.12,2.72,2.24,5.44,3.36,8.16,1.97,3.22,5.17,6.44,8.4,8.4,2,.96,4,1.92,6,2.88v.24c-23.71,4.55-28.06,26.65-16.8,47.04-10.08,4.48-20.16,8.96-30.24,13.44-3.46,1.44-9.7,2.72-11.28,6l-.24,1.44c1.41,2.77,3.25,3.16,6,4.56,6.18,3.15,9.62,6.48,11.04,14.4,1.25,6.97-2.53,13.32-6.24,15.6-2.96,1.28-5.92,2.56-8.88,3.84-2.55,1.92-2.48,5.79-.48,8.16,4.54,5.38,20.12,9.08,27.6,12,21.28,8.32,42.56,16.64,63.84,24.96,24.48,10.48,48.96,20.96,73.44,31.44,8.08,3.52,16.16,7.04,24.24,10.56,5.02,2.18,9.99,5.25,15.84,6.48,9.36,1.96,14.31-4.92,24.24-3.36,12.47,1.96,25.43,2.16,39.36,2.16,4.4-.08,8.8-.16,13.2-.24,7.08-1.78,14.29-8.08,20.16-11.76,12.4-7.52,24.8-15.04,37.2-22.56,37.68-22.56,76-43.13,113.04-66.48,7.16-4.52,14.25-9.72,21.6-14.16v2.4c-9.82,3.13-16.98,10.9-25.44,16.08-7.92,4.56-15.84,9.12-23.76,13.68,3.76-2.16,7.52-4.32,11.28-6.48,9.24-5.49,17.63-11.06,26.16-16.8,3.92-2.08,7.84-4.16,11.76-6.24v1.44c-.8.48-1.6.96-2.4,1.44.8-.4,1.6-.8,2.4-1.2v1.2c-3.66,1.25-6.47,3.82-9.84,5.04v.48h.24c3.12-1.68,6.01-3.68,9.6-5.04v.96c-4.59,1.28-8.19,4.57-11.76,6.96-5.72,3.82-11.94,7.14-17.52,10.8-3.77,2.47-10.06,4.1-12.72,7.68,9.03-6.14,18.71-10.9,28.08-16.56,4.26-2.57,8.47-7.32,13.92-8.4v2.4c-4.34,1.09-7.68,4.8-11.04,6.96-5.08,3.26-10.34,6.01-15.12,9.36-7.6,3.76-15.2,7.52-22.8,11.28-6.32,4-12.64,8-18.96,12-8.78,4.44-16.95,9.09-24.96,13.92-2.15,1.3-4.94,1.71-6.48,3.6,33.11-18.95,67.54-36.61,99.36-56.88v3.84c-9.44,5.92-18.88,11.84-28.32,17.76-4.59,2.71-11.86,4.18-14.64,8.64,5.6-3.88,12.14-6.46,18.24-10.08,8.24-5.36,16.48-10.72,24.72-16.08v1.44c-9.2,5.76-18.4,11.52-27.6,17.28,9.52-4.47,19.48-10.81,27.6-17.04v.96l-1.2,1.2,1.2-.72v4.56c-2.96,1.84-5.92,3.68-8.88,5.52-4.08,2.08-8.16,4.16-12.24,6.24-6.24,3.75-12.05,8.23-18.48,12-8.72,4.24-17.44,8.48-26.16,12.72-5.92,3.92-11.84,7.84-17.76,11.76-17.76,8.71-33.95,16.75-50.88,26.16-10.71,5.95-21.65,14.61-32.4,21.36-3.44,2.16-7.16,5.75-11.52,6.72v.24c5.09-.53,9.48-5.09,13.2-7.44,10.29-6.5,20.09-13.93,30.24-20.16,2.88-1.28,5.76-2.56,8.64-3.84,10.92-6.43,22.29-12.61,33.6-18.72,3.92-1.76,7.84-3.52,11.76-5.28,3.76-2.72,7.52-5.44,11.28-8.16,9.62-6.19,21.28-9.58,30.96-15.36,12.66-7.57,25.32-16.41,38.64-23.28v1.92c-2.32,1.52-4.64,3.04-6.96,4.56-7.23,4.17-17.12,6.54-22.32,12.72,7.5-2.92,13.69-10.53,22.32-12.24l-.24.48c-6.81,2.05-13.8,7.74-19.68,11.28-15.39,9.27-31.95,16.64-47.04,25.68-8.48,4.32-16.96,8.64-25.44,12.96-20.28,10.96-40.11,23.17-58.8,35.76-4.64,2.8-9.28,5.6-13.92,8.4,7.68-2.29,13.67-8.24,19.92-12.24,11.2-6.88,22.4-13.76,33.6-20.64,12.7-7.47,25.61-13.42,38.88-20.4,6.56-3.92,13.12-7.84,19.68-11.76,20.53-10.98,41.87-20.71,60-34.08v2.88c-13.76,8-27.52,16-41.28,24-28.56,15.6-57.12,31.2-85.68,46.8-11.52,7.36-23.04,14.72-34.56,22.08v.24c6.59-1.94,12.38-7.69,17.76-11.28l30-18c25.25-14.33,51.06-26.95,75.84-41.52,12.74-7.5,25.94-13.83,37.92-22.08v2.88c-8,4.96-16,9.92-24,14.88-26.21,14.7-50.05,30.86-75.12,46.32-8.16,5.03-16.46,10.17-24.72,15.36-4.13,2.6-7.94,5.99-12.72,7.92v.24c6.14-1.63,11.07-6.51,16.08-9.6,13.27-8.18,26.41-16.19,38.64-25.2,6.56-3.84,13.12-7.68,19.68-11.52,4.96-3.44,9.92-6.88,14.88-10.32,15.7-9.69,32-18.18,47.28-27.84v2.4c-7.04,2.79-13.7,8.5-19.92,12.48-9.68,5.6-19.36,11.2-29.04,16.8-4.72,2.85-15.65,8.06-18.48,12.24,21.6-14.48,45.22-27.21,67.44-41.04v1.92c-12.96,7.76-25.92,15.52-38.88,23.28-5.52,3.28-13.51,5.28-17.52,10.08,19.37-10.05,38.48-21.34,56.4-33.12v3.36c-8.64,5.44-17.28,10.88-25.92,16.32-7.89,4.66-15.72,8.52-23.76,12.72-4.4,3.36-8.8,6.72-13.2,10.08-12.34,8.73-25.23,16.3-36.48,25.44,3.51-.93,5.75-3.5,8.4-5.28,6.96-5.12,13.92-10.24,20.88-15.36,22.49-15.01,47-28.84,70.08-43.44.09,1.78.41,5.3-.48,6.24-6.08,3.68-12.16,7.36-18.24,11.04-16.51,10.04-34.03,19.96-49.44,30.96-3.92,2.56-7.84,5.12-11.76,7.68,9.81-3.1,17.67-12.24,25.92-17.52,8.64-4.72,17.28-9.44,25.92-14.16,9.29-5.63,18.55-12.01,28.08-17.52v86.88H0V0Z"/>
  <path class="cls-1" d="M262.56,30.96c3.68-.08,9.23-.62,11.76.72l-.24.48c-14.32,5.6-28.64,11.2-42.96,16.8-31.36,12.28-63.13,21.76-94.8,34.08-2.32,1.2-4.64,2.4-6.96,3.6v.24c4.88-.42,8.95-2.77,12.96-4.32,8.18-3.16,16.61-5.59,24.48-8.64,25.44-9.28,50.88-18.56,76.32-27.84,9.06-3.33,17.9-7.19,26.4-10.8,2.47-1.05,7.5-4.41,9.84-2.64h-.48c-5.68,2.32-11.36,4.64-17.04,6.96-3.62,1.73-7.49,4.19-12,5.04v.24c3.99-.36,7.72-2.79,10.8-4.32,6.4-2.64,12.8-5.28,19.2-7.92,4.08.8,8.16,1.6,12.24,2.4l-.24.72c-3.54,1.1-9.4,1.92-11.52,4.56,4.08-2.05,10.34-5.33,15.6-4.32v.24c-4.3.59-10.15,2.3-13.2,4.56,4.4-1.44,8.8-2.88,13.2-4.32,3.4-.76,8.72,1.56,11.52,2.4,9.4,2.81,18.91,3.38,26.88,6.24,6.96,1.44,13.92,2.88,20.88,4.32l-.24.48c-6.23,1.81-19,5.88-23.04,9.84,8.25-3.29,17.4-9.98,26.88-9.84l-.24.72c-4.46.91-7.05,3.29-10.56,4.8-4.08,1.52-8.16,3.04-12.24,4.56,8.88-2.28,15.31-7.63,23.52-9.6,3.44.64,6.88,1.28,10.32,1.92,8.32,2.03,20.17,1.9,27.36,5.76-.72,2.93-13.45,6.54-16.8,7.92-16.36,6.73-33.11,13.13-49.68,20.16-24.73,10.48-49.85,19.98-75.12,30-10.24,4.08-20.48,8.16-30.72,12.24-2.82.43-6.8-3.13-9.12-4.08-7.76-2.48-15.52-4.96-23.28-7.44-31.33-9.67-63.98-15.63-93.6-27.36l.48-.72c21.36-8.08,42.72-16.16,64.08-24.24,28.88-10.32,57.76-20.64,86.64-30.96,4.24-.88,8.48-1.76,12.72-2.64Z"/>
  <path class="cls-1" d="M264.72,33.6c-3.04.72-6.08,1.44-9.12,2.16-6.8,2.48-13.6,4.96-20.4,7.44-31.28,11.52-62.56,23.04-93.84,34.56-7.95,3.11-16.98,5.97-24.72,8.4-2.64.56-5.28,1.12-7.92,1.68l.48.72c4.15.15,6.51,1.46,9.6,2.4,7.04,1.84,14.08,3.68,21.12,5.52,19.76,5.36,39.52,10.72,59.28,16.08,5.92,1.92,11.84,3.84,17.76,5.76,2.56,1.28,5.12,2.56,7.68,3.84,3.08.77,8.23-2.88,10.56-3.84,8.96-3.44,17.92-6.88,26.88-10.32,30.24-12.24,60.48-24.48,90.72-36.72,7.76-3.2,15.52-6.4,23.28-9.6,2.87-1.22,8.4-1.88,10.08-4.32v-.24c-6.43.78-11.23,3.6-16.32,5.76-8.48,3.52-16.96,7.04-25.44,10.56-39.68,15.76-79.36,31.52-119.04,47.28-9.15-4.96-20.25-7.52-31.2-10.8-16.64-4.72-33.28-9.44-49.92-14.16-9.04-2.4-18.08-4.8-27.12-7.2v-.24c9.4-1.55,20.14,3.52,28.32,6,19.12,5.28,38.24,10.56,57.36,15.84,8.32,2.8,16.64,5.6,24.96,8.4,4.24-1.92,8.48-3.84,12.72-5.76,12.08-4.8,24.16-9.6,36.24-14.4,34.57-14.38,69.58-27.91,103.68-42l-.24-.48c-5.16.06-9.21,3.42-13.2,5.04-9.09,3.7-17.91,7.08-26.64,10.8-37.6,14.88-75.2,29.76-112.8,44.64-8.24-2.64-16.48-5.28-24.72-7.92-24.4-6.8-48.8-13.6-73.2-20.4,1.68-.48,3.36-.96,5.04-1.44-3.22.35-10.63,2-12.24-.96,15.94-4.31,30.99-10.45,45.84-16.32,19.52-7.12,39.04-14.24,58.56-21.36,8.72-3.2,17.44-6.4,26.16-9.6,3.85-1.47,10.16-1.96,12.72-4.8h-.96Z"/>
  <path class="cls-1" d="M281.28,33.6c-4.32,1.68-8.64,3.36-12.96,5.04v.24c4.56-1.76,9.12-3.52,13.68-5.28h-.72Z"/>
  <path class="cls-1" d="M286.8,34.56c-7.36,2.8-14.72,5.6-22.08,8.4v.24c3.21-.55,22.09-8.53,22.08-8.64Z"/>
  <path class="cls-1" d="M279.84,35.52l-.48.24v.24l.48-.48Z"/>
  <path class="cls-1" d="M287.76,35.52c-1.44.64-2.88,1.28-4.32,1.92,1.72-.32,4.82-1.4,4.32-1.92Z"/>
  <path class="cls-1" d="M277.92,36.24l.72.24-.72-.24Z"/>
  <path class="cls-1" d="M276.72,36.72c-.72.4-1.44.8-2.16,1.2,1.31-.31,2.23-.8,2.16-1.2Z"/>
  <path class="cls-1" d="M282.72,37.44l-.48.24v.24c.59-.33.59.03.48-.48Z"/>
  <path class="cls-1" d="M273.84,37.92c-5.76,2.16-11.52,4.32-17.28,6.48,3.16-.39,17.36-5.78,17.28-6.48Z"/>
  <path class="cls-1" d="M281.52,37.92l-.24.48c.36-.4.38.04.24-.48Z"/>
  <path class="cls-1" d="M296.64,37.92c-6.32,2.64-12.64,5.28-18.96,7.92,2.6-.55,19.01-7.38,18.96-7.92Z"/>
  <path class="cls-1" d="M303.36,38.4c-7.45,3.36-15.13,5.64-22.32,8.64-2.24.96-4.48,1.92-6.72,2.88,6.68-1.69,12.48-5.26,18.48-7.68,3.92-1.28,7.84-2.56,11.76-3.84h-1.2Z"/>
  <path class="cls-1" d="M267.6,38.88l-.96.72c1.06-.48,1.05-.27.96-.72Z"/>
  <path class="cls-1" d="M280.08,38.88c-3.68,1.6-7.36,3.2-11.04,4.8,1.74-.45,12.42-4.21,11.04-4.8Z"/>
  <path class="cls-1" d="M307.68,39.36c-2,.72-4,1.44-6,2.16,1.92-.35,6.59-1.56,6-2.16Z"/>
  <path class="cls-1" d="M279.84,40.32l-.24.48.48-.48h-.24Z"/>
  <path class="cls-1" d="M310.32,40.56l-.48.24v.24l1.2-.48h-.72Z"/>
  <path class="cls-1" d="M281.04,41.04l-.48.24v.24c.61-.29.97,0,.48-.48Z"/>
  <path class="cls-1" d="M284.88,41.04l-.48.24v.24l.48-.48Z"/>
  <path class="cls-1" d="M308.88,41.04l-.48.24v.24l1.2-.48h-.72Z"/>
  <path class="cls-1" d="M312.96,41.04c-1.6.64-3.2,1.28-4.8,1.92,1.86-.19,5.34-1.37,4.8-1.92Z"/>
  <path class="cls-1" d="M314.88,41.04l-.72.24v.24c.84-.2.62-.34.72-.48Z"/>
  <path class="cls-1" d="M278.4,41.28c-3.84,1.68-7.68,3.36-11.52,5.04,3.97-.94,9.54-2.71,12.48-5.04h-.96Z"/>
  <path class="cls-1" d="M300.24,41.28c-.64.4-1.28.8-1.92,1.2,1.33-.31,2.05-.68,1.92-1.2Z"/>
  <path class="cls-1" d="M283.68,41.52c-2.16.96-4.32,1.92-6.48,2.88,1.73-.36,6.5-2.88,6.48-2.88Z"/>
  <path class="cls-1" d="M307.44,41.52c-.64.32-1.28.64-1.92.96.88-.32,1.76-.64,2.64-.96h-.72Z"/>
  <path class="cls-1" d="M250.08,42.24h.72v.24l-1.44.24.72-.48Z"/>
  <path class="cls-1" d="M313.2,42.24c-3.36,2.39-8.4,2.72-11.52,5.28,1.96-.57,11.54-5.02,11.52-5.28Z"/>
  <path class="cls-1" d="M316.56,42.24l-1.2.96c1.38-.31,1.3-.36,1.2-.96Z"/>
  <path class="cls-1" d="M304.8,42.48l-1.2.72c1.3-.26,1.29-.32,1.2-.72Z"/>
  <path class="cls-1" d="M314.64,43.44c-4.08,1.76-8.16,3.52-12.24,5.28v.24c2.03-.33,12.25-5.46,12.24-5.52Z"/>
  <path class="cls-1" d="M262.32,43.68l.72.24-.72-.24Z"/>
  <path class="cls-1" d="M318.72,43.68c-5.02,2.45-11.81,2.81-15.6,6.48,5.2-2.16,10.4-4.32,15.6-6.48Z"/>
  <path class="cls-1" d="M321.6,43.68c-4.96,2.08-9.92,4.16-14.88,6.24v.24c4.64-1.84,9.28-3.68,13.92-5.52l.96-.96Z"/>
  <path class="cls-1" d="M267.36,43.92c-1.52.56-3.04,1.12-4.56,1.68v.24c1.88-.11,4.64-1.34,4.56-1.92Z"/>
  <path class="cls-1" d="M325.2,44.16c-2.79,2.7-8.38,4.85-12.24,6.24v.24c3.46-.83,10.68-3.88,12.72-6.48h-.48Z"/>
  <path class="cls-1" d="M259.68,44.4c-2.08.64-4.16,1.28-6.24,1.92v.24c2.1-.11,6.65-1.74,6.24-2.16Z"/>
  <path class="cls-1" d="M300,44.4c.34.64.13.21.72,0h-.72Z"/>
  <path class="cls-1" d="M322.8,44.4l-.48.24v.24c.59-.33.59.03.48-.48Z"/>
  <path class="cls-1" d="M329.04,44.64c-2,.96-4,1.92-6,2.88,2.24-.96,4.48-1.92,6.72-2.88h-.72Z"/>
  <path class="cls-1" d="M330.72,44.64l-.48.24v.24c.59-.33.59.03.48-.48Z"/>
  <path class="cls-1" d="M321.84,44.88l-.48.24v.24l.48-.48Z"/>
  <path class="cls-1" d="M298.32,45.12l-.72.72c.9-.48,1.36-.11.72-.72Z"/>
  <path class="cls-1" d="M320.88,45.36c-3.41,2.04-8.91,2.66-11.52,5.52,3.84-1.84,7.68-3.68,11.52-5.52Z"/>
  <path class="cls-1" d="M261.84,45.84c-1.84.64-3.68,1.28-5.52,1.92,1.99-.17,6.05-1.38,5.52-1.92Z"/>
  <path class="cls-1" d="M330.72,45.84l-.72.72c.87-.52.79-.29.72-.72Z"/>
  <path class="cls-1" d="M334.8,45.84c-3.76,1.52-7.52,3.04-11.28,4.56v.24c2.31-.66,12.54-4.64,11.28-4.8Z"/>
  <path class="cls-1" d="M328.8,46.32c-2.56,1.04-5.12,2.08-7.68,3.12v.24c2.27-.19,7.76-3.28,7.68-3.36Z"/>
  <path class="cls-1" d="M244.8,46.56l-.48.24v.24c.59-.33.59.03.48-.48Z"/>
  <path class="cls-1" d="M252.48,46.56c-2.32.88-4.64,1.76-6.96,2.64,2.56-.88,5.12-1.76,7.68-2.64h-.72Z"/>
  <path class="cls-1" d="M294.96,46.56l-.48.24v.24c.59-.33.59.03.48-.48Z"/>
  <path class="cls-1" d="M338.64,46.8c-5.04,2.48-10.08,4.96-15.12,7.44,5.28-2.48,10.56-4.96,15.84-7.44h-.72Z"/>
  <path class="cls-1" d="M293.76,47.04l-.48.24v.24c.59-.33.59.03.48-.48Z"/>
  <path class="cls-1" d="M287.04,47.52l-.72.24v.24l1.44-.48h-.72Z"/>
  <path class="cls-1" d="M333.84,47.52c-4.88,2.08-9.76,4.16-14.64,6.24v.24c2.51-.44,14.67-6.11,14.64-6.48Z"/>
  <path class="cls-1" d="M340.32,47.52c-.56.32-1.12.64-1.68.96.88-.32,1.76-.64,2.64-.96h-.96Z"/>
  <path class="cls-1" d="M342,47.76l-.24.48.96-.48h-.72Z"/>
  <path class="cls-1" d="M346.32,47.76c-5.6,3.16-12.66,3.83-17.52,7.68,2.16-.62,17.29-7.18,17.52-7.68Z"/>
  <path class="cls-1" d="M285.6,48l-.24.48h.72l-.48-.48Z"/>
  <path class="cls-1" d="M320.16,48.24c-1.36.8-2.72,1.6-4.08,2.4,1.26-.21,4.59-2.42,4.08-2.4Z"/>
  <path class="cls-1" d="M252.72,48.48l-.72.24v.24l1.44-.48h-.72Z"/>
  <path class="cls-1" d="M284.4,48.48c-.56.32-1.12.64-1.68.96,1.37-.27,2.27-.4,1.68-.96Z"/>
  <path class="cls-1" d="M298.32,48.48l-.24.48c.36-.4.38.04.24-.48Z"/>
  <path class="cls-1" d="M340.32,48.72c-1.6.56-3.2,1.12-4.8,1.68v.24c1.72-.13,4.87-1.51,4.8-1.92Z"/>
  <path class="cls-1" d="M351.12,48.96c-3.36,1.28-6.72,2.56-10.08,3.84-2.72,1.52-5.44,3.04-8.16,4.56v.24c2.4-1.28,4.8-2.56,7.2-3.84,4.08-1.6,8.16-3.2,12.24-4.8h-1.2Z"/>
  <path class="cls-1" d="M346.32,49.44l.72.24-.72-.24Z"/>
  <path class="cls-1" d="M320.64,49.68c-1.28.88-2.56,1.76-3.84,2.64,1.28-.88,2.56-1.76,3.84-2.64Z"/>
  <path class="cls-1" d="M345.6,49.68l-.72.24v.24c.82-.27.86.02.72-.48Z"/>
  <path class="cls-1" d="M302.4,50.16l-.48.24v.24c.59-.33.59.03.48-.48Z"/>
  <path class="cls-1" d="M306,50.16l-.24.48.72-.48h-.48Z"/>
  <path class="cls-1" d="M344.16,50.16l-.48.24v.24c.59-.33.59.03.48-.48Z"/>
  <path class="cls-1" d="M305.04,50.64l-.24.48c.36-.4.38.04.24-.48Z"/>
  <path class="cls-1" d="M334.56,50.64l-1.44,1.2c.72-.4,1.44-.8,2.16-1.2h-.72Z"/>
  <path class="cls-1" d="M343.2,50.64l-.48.24v.24l.48-.48Z"/>
  <path class="cls-1" d="M308.4,50.88c-1.28.72-2.56,1.44-3.84,2.16,1.59-.38,3.55-1.13,4.56-2.16h-.72Z"/>
  <path class="cls-1" d="M322.32,50.88l-.48.24v.24c.59-.33.59.03.48-.48Z"/>
  <path class="cls-1" d="M342,51.12c-1.84.8-3.68,1.6-5.52,2.4,1.68-.15,5.93-2.28,5.52-2.4Z"/>
  <path class="cls-1" d="M360.96,51.12c-2.56.96-5.12,1.92-7.68,2.88,2.48-.5,6.71-1.36,8.4-2.88h-.72Z"/>
  <path class="cls-1" d="M311.04,51.6c-.56.4-1.12.8-1.68,1.2,1.12-.48,1.74-.81,1.68-1.2Z"/>
  <path class="cls-1" d="M314.16,51.84l-.72.72c.94-.39.87-.2.72-.72Z"/>
  <path class="cls-1" d="M319.92,51.84l-.72.24v.24c.82-.27.86.02.72-.48Z"/>
  <path class="cls-1" d="M331.44,52.08c-.56.32-1.12.64-1.68.96v.24c.8-.4,1.6-.8,2.4-1.2h-.72Z"/>
  <path class="cls-1" d="M318.72,52.32l-.48.24v.24l.48-.48Z"/>
  <path class="cls-1" d="M363.6,52.32c-8.15,4.26-22.8,5.01-28.8,11.04,5.76-2.32,11.52-4.64,17.28-6.96,4.16-1.36,8.32-2.72,12.48-4.08h-.96Z"/>
  <path class="cls-1" d="M312.72,52.56l-1.2.72c1.3-.26,1.29-.32,1.2-.72Z"/>
  <path class="cls-1" d="M315.84,52.8l-.72.72.72-.72Z"/>
  <path class="cls-1" d="M367.44,53.04l-1.2.72c1.3-.3,1.81-.13,1.2-.72Z"/>
  <path class="cls-1" d="M364.8,53.28l-.96.72c1.15-.34,1.11-.2.96-.72Z"/>
  <path class="cls-1" d="M370.32,53.52c-6.66,3.72-15.36,3.65-21.12,8.16,7.28-2.72,14.56-5.44,21.84-8.16h-.72Z"/>
  <path class="cls-1" d="M372.48,53.52c-1.94,1.3-4.41,1.55-6.72,2.64-7.3,3.45-15.48,7.56-23.76,9.6v.24c7.24-.99,14.43-5.25,20.64-7.92,2.59-1.11,10.92-4.98,9.84-4.56Z"/>
  <path class="cls-1" d="M302.16,53.76l-.24.48c.36-.4.38.04.24-.48Z"/>
  <path class="cls-1" d="M362.88,54c-.64.4-1.28.8-1.92,1.2.88-.4,1.76-.8,2.64-1.2h-.72Z"/>
  <path class="cls-1" d="M322.56,54.24c-1.44.64-2.88,1.28-4.32,1.92,1.68-.64,3.36-1.28,5.04-1.92h-.72Z"/>
  <path class="cls-1" d="M351.84,54.24l-.48.24v.24c.59-.33.59.03.48-.48Z"/>
  <path class="cls-1" d="M312,54.72l-.24.48c.36-.4.38.04.24-.48Z"/>
  <path class="cls-1" d="M345.84,54.72l-.72.24v.24c.82-.27.86.02.72-.48Z"/>
  <path class="cls-1" d="M372.72,54.72l-5.76,2.88c1.7-.38,6.22-2.77,5.76-2.88Z"/>
  <path class="cls-1" d="M376.32,54.72c-2,.8-4,1.6-6,2.4l.48.48h.24c2.24-.96,4.48-1.92,6.72-2.88h-1.44Z"/>
  <path class="cls-1" d="M324.72,55.2c-1.36.64-2.72,1.28-4.08,1.92,1.62-.37,4.54-1.44,4.08-1.92Z"/>
  <path class="cls-1" d="M333.84,55.2l-.96.72c1.16-.32,1.05-.31.96-.72Z"/>
  <path class="cls-1" d="M360,55.2c-7.12,2.8-14.24,5.6-21.36,8.4,4.31-1,19.31-6.08,22.08-8.4h-.72Z"/>
  <path class="cls-1" d="M303.36,55.44l-.48.24v.24l.48-.48Z"/>
  <path class="cls-1" d="M328.32,55.44l-1.2.96c1.05-.3,1.05-.48,1.2-.96Z"/>
  <path class="cls-1" d="M320.16,57.12c-.96.4-1.92.8-2.88,1.2v.24c.96-.48,1.92-.96,2.88-1.44Z"/>
  <path class="cls-1" d="M366.48,57.6l-.24.48.48-.48h-.24Z"/>
  <path class="cls-1" d="M369.6,57.84c-4.88,2.16-9.76,4.32-14.64,6.48v.24c5.28-2.24,10.56-4.48,15.84-6.72h-1.2Z"/>
  <path class="cls-1" d="M316.56,58.56l-.48.24v.24l.48-.48Z"/>
  <path class="cls-1" d="M321.12,58.8c-.72.4-1.44.8-2.16,1.2,1.31-.31,2.23-.8,2.16-1.2Z"/>
  <path class="cls-1" d="M363.12,59.04c-1.6.72-3.2,1.44-4.8,2.16,1.62-.52,5.38-1.56,4.8-2.16Z"/>
  <path class="cls-1" d="M357.6,61.2c-4.13,3.08-11.8,4.99-17.04,6.48v.24c3.24-.48,17.13-5.68,17.04-6.72Z"/>
  <path class="cls-1" d="M347.04,62.16l.72.24-.72-.24Z"/>
  <path class="cls-1" d="M353.76,64.8l-.96.72c1.13-.4,1.04-.31.96-.72Z"/>
  <path class="cls-1" d="M352.08,65.52c-.56.32-1.12.64-1.68.96,1.3-.29,1.76-.55,1.68-.96Z"/>
  <path class="cls-1" d="M340.8,66c-.8.4-1.6.8-2.4,1.2,1.04-.4,2.08-.8,3.12-1.2h-.72Z"/>
  <path class="cls-1" d="M349.2,66.48l.72.24-.72-.24Z"/>
  <path class="cls-1" d="M387.6,67.2h.96v.72c-.63,1.68-1.05,3.85-2.4,4.8-10.4,4-20.8,8-31.2,12-21.71,9.14-44.73,17.55-66.96,26.4-10.72,4.32-21.44,8.64-32.16,12.96-.4-.64-.8-1.28-1.2-1.92,9.67-1.66,22.88-9,31.92-12.72,18.57-7.64,37.12-14.68,55.2-22.32,9.44-3.84,18.88-7.68,28.32-11.52,6.4-2.62,12.61-4.41,17.52-8.4Z"/>
  <path class="cls-1" d="M338.88,70.08l.72.24-.72-.24Z"/>
  <path class="cls-1" d="M336.96,70.8l-.48.24v.24l.48-.48Z"/>
  <path class="cls-1" d="M385.2,74.64h.72c-.32.8-.64,1.6-.96,2.4-30.32,11.92-60.64,23.84-90.96,35.76-12.16,4.56-24.32,9.12-36.48,13.68l-.48-.96v-.72c12.16-4.88,24.32-9.76,36.48-14.64,17.91-7.11,36.29-13.3,53.52-20.64,12.72-4.96,25.44-9.92,38.16-14.88Z"/>
  <path class="cls-1" d="M384.48,78.72c.68.67.42,1.34.24,2.4-13.76,5.28-27.52,10.56-41.28,15.84-6.14,2.41-15.77,3.78-20.16,8.16,5.84-2.16,11.68-4.32,17.52-6.48v.24h-.48c-18.64,7.44-37.28,14.88-55.92,22.32-8.51,3.27-17.78,5.7-24.48,10.8-.56-1.36-1.12-2.72-1.68-4.08,6.56-2.72,13.12-5.44,19.68-8.16,21.89-8.67,43.37-16.75,64.8-25.44,10.48-3.84,20.96-7.68,31.44-11.52,3.44-1.36,6.88-2.72,10.32-4.08Z"/>
  <path class="cls-1" d="M384.24,82.8c.62.55.67,1,.72,2.16-6.32,2.48-12.64,4.96-18.96,7.44-21.42,8.05-41.55,16.4-61.92,24.96-11.02,4.63-21.87,8.22-32.64,12.48-3.6,1.28-7.2,2.56-10.8,3.84v-1.44c4.96-2.24,9.92-4.48,14.88-6.72,19.2-7.78,37.83-15.55,56.64-23.04,17.36-6.56,34.72-13.12,52.08-19.68Z"/>
  <path class="cls-1" d="M134.4,84.48h.96c-1.04.4-2.08.8-3.12,1.2.72-.4,1.44-.8,2.16-1.2Z"/>
  <path class="cls-1" d="M384.96,86.4c.73.6.72.97.48,1.92-15.68,6.16-31.36,12.32-47.04,18.48-6.63,2.63-18.09,5.25-23.28,9.36,8-2.96,16-5.92,24-8.88v.24h-.48c-8,4.77-17.42,7.25-26.4,10.8-9.15,3.62-19.06,7.91-28.08,11.76-5.71,2.44-17.6,5.5-21.36,9.6,10.8-4.64,21.6-9.28,32.4-13.92,16.55-6.7,35.24-12.98,48.96-20.64,4.56-1.52,9.12-3.04,13.68-4.56,9.52-3.68,19.04-7.36,28.56-11.04l.24.24c.2,1.17.49,1.56,0,2.16-11.2,4.24-22.4,8.48-33.6,12.72-16.8,6.96-33.6,13.92-50.4,20.88-13.27,5.21-29.35,8.77-40.08,16.8h-.24c-.16-1.44-.32-2.88-.48-4.32,8.8-3.76,17.6-7.52,26.4-11.28-9.05,1.74-18.98,7.16-26.64,10.8v-.48c-.24-.96-.48-1.92-.72-2.88,10.38-2.5,20.46-7.31,29.52-11.52,4.16-1.36,8.32-2.72,12.48-4.08,8.16-3.52,16.32-7.04,24.48-10.56,19.2-7.2,38.4-14.4,57.6-21.6Z"/>
  <path class="cls-1" d="M134.4,88.08l.72.24-.72-.24Z"/>
  <path class="cls-1" d="M93.84,90.48c4.78-.11,7.67,1.97,11.28,3.12,6.56,2,13.12,4,19.68,6,22.24,6.32,44.48,12.64,66.72,18.96,10.79,3.37,25.44,5.41,31.92,13.2,6.08,7.31,14.21,26.35,6.96,38.4-1.49,2.48-3.66,6.09-6.48,7.2-6.58,2.59-31.78-4.76-37.68-6.72-24.24-8.04-49.17-14.49-72.72-22.8-11.38-4.01-25.26-6.59-34.08-13.44-7.13-5.54-9.82-21.22-4.08-30.72,4.53-7.49,9.94-9.5,18.48-13.2Z"/>
  <path class="cls-1" d="M387.12,92.88c.92.52,1.18,1.26,1.68,2.16l-.24.48c-5.93.37-11.39,3.75-16.08,5.76-7.84,3.04-15.68,6.08-23.52,9.12-7.6,2.8-15.2,5.6-22.8,8.4-10.88,5.12-21.76,10.24-32.64,15.36-10.16,4.44-21.47,8.57-31.2,12.72.34-1.47-.04-3.16.48-4.32,27.55-11.23,56.42-23.73,84.24-34.8,13.36-4.96,26.72-9.92,40.08-14.88Z"/>
  <path class="cls-1" d="M94.32,94.32c-4.83,2.26-9.03,2.52-12,6.48-5.98,7.98-6.92,25.74,1.44,31.68,8.45,6.01,21.48,8.35,31.92,12,24,7.6,48,15.2,72,22.8,4.9,1.64,29.36,9.32,34.08,8.16,2.15-.53,4.01-2.4,5.04-4.08,6.55-10.71-.74-31.95-6.48-38.16-7.43-8.03-21.29-9.83-33.12-13.44-19.28-5.52-38.56-11.04-57.84-16.56-10.69-3.25-22.55-8.34-35.04-8.88Z"/>
  <path class="cls-1" d="M388.56,95.52l.96.72v.24c-5.05.74-9.83,3.71-14.16,5.52-9.76,4-19.52,8-29.28,12-27.84,11.79-58.01,21.65-83.76,35.76.08-.72.16-1.44.24-2.16,2.74-3.55,23.66-9.31,29.28-12,19.75-9.45,40.06-17.81,61.2-26.4,9.23-3.75,18.23-7.03,27.12-10.56,2.8-1.04,5.6-2.08,8.4-3.12Z"/>
  <path class="cls-1" d="M389.76,96.96c.48.56.96,1.12,1.44,1.68-5.44,2.24-10.88,4.48-16.32,6.72-9.6,4.08-19.2,8.16-28.8,12.24-18.48,7.76-36.96,15.52-55.44,23.28-9.9,4.24-19.83,7.77-28.8,12.72v-.96c.75-1.51,1.77-1.58,2.88-2.64-.99.29-2.09,1.52-2.4.24,8.16-3.6,16.32-7.2,24.48-10.8,18.64-7.84,37.28-15.68,55.92-23.52,15.68-6.32,31.36-12.64,47.04-18.96Z"/>
  <path class="cls-1" d="M91.92,97.92c1.28-.05,2.2.02,2.88.48h.48v.96c-.8.4-1.6.8-2.4,1.2l.96-1.44-.96.24c-3.42,7.14-9.62,19.94-5.28,31.68-10.4-3.19-.85-29.8,4.32-33.12Z"/>
  <path class="cls-1" d="M341.28,98.16h.72v.24h-1.2l.48-.24Z"/>
  <path class="cls-1" d="M374.64,98.16c-1.36.64-2.72,1.28-4.08,1.92,1.51-.36,4.15-1.4,4.08-1.92Z"/>
  <path class="cls-1" d="M88.56,99.12c-1.76,4-3.52,8-5.28,12-1.59,5.3-.16,10.91,0,16.32l-.72-.48c-4.99-12.82-1.2-20.15,6-27.84Z"/>
  <path class="cls-1" d="M391.92,99.6l1.44.24.72.48-.24.48c-44.32,18.64-88.64,37.28-132.96,55.92,1.01-3.49,5.71-4.2,8.88-5.52,8.24-3.44,16.48-6.88,24.72-10.32,32.48-13.76,64.96-27.52,97.44-41.28Z"/>
  <path class="cls-1" d="M91.68,99.84c-.72,1.04-1.44,2.08-2.16,3.12,1.04-.7,2.55-2.46,2.16-3.12Z"/>
  <path class="cls-1" d="M369.36,100.08c-4.5,3.44-12.74,5.95-18,6.96v.24c4.45-.49,15.91-4.33,18.72-7.2h-.72Z"/>
  <path class="cls-1" d="M94.32,101.04s-2.68,8.12-3.12,10.32c-1.72,8.53.61,15.74,4.08,20.4-.32.92,0,.5-.72.96-1.64.67-3.94-.5-5.04-1.2-3.5-10.35.11-23.81,4.8-30.48Z"/>
  <path class="cls-1" d="M100.32,101.28c11.85-.31,20.27,3.92,29.52,6.72,17.68,5.35,35.07,9.37,51.84,14.64,10.91,3.43,24.98,4.52,33.6,10.56,6.7,4.69,8.88,13.46,10.56,23.28.97,5.71-.44,12.58-4.08,13.92-2.8,1.2-7.4-1.01-9.6-1.68-7.42-2.25-14.63-4.09-21.6-6.48-21.44-7.34-43.26-12.91-64.32-20.16-7.62-2.62-15.67-4.16-22.56-7.68-5.89-3.01-16.2-16.78-6.96-23.76,5.62-4.25,22.12.99,27.36,2.64,2.01.63,5.11,2.68,7.2,2.16-7.93-1.19-34.86-15.14-37.92.24h-.24c.96-16.92,30.63-4.44,39.12-2.16-6.11-4.28-30.17-10.05-37.68-4.32,2.83-9.7,22.6-3.45,29.76-1.2,23.44,6.96,46.88,13.92,70.32,20.88,7.22,2.27,14.02,5.72,20.88,7.92-7.26-6.1-23.65-9.31-34.08-12.24-18.42-5.17-37.31-11.37-56.16-17.04-6.18-1.86-23.35-7.02-29.76-2.88-.72,1.44-1.44,2.88-2.16,4.32.82-5.25,2.72-5.78,6.96-7.68Z"/>
  <path class="cls-1" d="M88.8,102.96l-.24.72.48-.72h-.24Z"/>
  <path class="cls-1" d="M349.92,103.92c-1.6.64-3.2,1.28-4.8,1.92v.24c1.66-.23,4.88-1.66,4.8-2.16Z"/>
  <path class="cls-1" d="M400.56,103.92c1.07.18,1.01.3,1.68.72v.96c-2.67,2.51-6.68,3.48-10.32,5.04-10.76,4.63-21.93,8.95-32.88,13.92-33.2,14.16-66.4,28.32-99.6,42.48-10.96,4.48-21.92,8.96-32.88,13.44-4.51,1.39-12.16.78-15.12-1.68,3.6.27,6.75,2.01,11.04,1.2,4.83-.91,8.36-3.77,12.48-5.52,9.36-3.92,18.72-7.84,28.08-11.76,30.14-13,60.39-25.23,90.24-38.16,11.68-4.96,23.36-9.92,35.04-14.88,4.09-1.86,9.14-2.88,12.24-5.76Z"/>
  <path class="cls-1" d="M343.2,105.36h.96v.24c-1.44.48-2.88.96-4.32,1.44,1.12-.56,2.24-1.12,3.36-1.68Z"/>
  <path class="cls-1" d="M98.4,108c-1.09.7-1.82.92-2.4,2.16,2.42-1.36,4.29-1,7.2-2.16h-4.8Z"/>
  <path class="cls-1" d="M349.68,108c-1.52.64-3.04,1.28-4.56,1.92v.24c1.76-.64,3.52-1.28,5.28-1.92l-.72-.24Z"/>
  <path class="cls-1" d="M329.04,108.48c-10.93,6.26-26.17,8.58-35.76,16.08,12.24-5.36,24.48-10.72,36.72-16.08h-.96Z"/>
  <path class="cls-1" d="M344.4,110.16l-.48.24v.24c.59-.33.59.03.48-.48Z"/>
  <path class="cls-1" d="M100.08,110.88c-5.41,2.25-6.7,5.83-4.8,12.48h.24c-.21-3.41.06-6.3.72-9.12,2.27-1.51,4.93-1.38,7.92-2.64-1.76.08-3.52.16-5.28.24,7.3-1.06,14.4.45,21.6,3.12,2.13.79,7.65,3.97,9.84,3.12-9.97-1.95-17.29-7.09-30.24-7.2Z"/>
  <path class="cls-1" d="M100.8,113.04c-.8.24-1.6.48-2.4.72v.24c4.08-1.09,8.83-.42,12.72.48-2.3-1.54-6.55-1.49-10.32-1.44Z"/>
  <path class="cls-1" d="M137.52,113.52c1.52.56,3.04,1.12,4.56,1.68-1.52-.56-3.04-1.12-4.56-1.68Z"/>
  <path class="cls-1" d="M97.68,114l-.48.72c.7-.51.62-.17.48-.72Z"/>
  <path class="cls-1" d="M405.12,114.24c8.76-.18,15.94,3.35,23.04,5.52,4.95,1.51,10.79,1.87,14.88,4.32l-.48,1.44c-7.44,3.04-14.88,6.08-22.32,9.12-14.24,6-28.48,12-42.72,18-25.84,10.8-51.68,21.6-77.52,32.4-17.12,7.2-34.24,14.4-51.36,21.6-9.69-7.48-25.32-10.16-37.44-14.88-26.72-9.52-53.44-19.04-80.16-28.56-8.96-3.2-17.92-6.4-26.88-9.6-4.22-1.65-10.17-2.41-12.72-5.76l5.76,2.88c5.12,1.68,10.24,3.36,15.36,5.04,25.76,7.44,51.52,14.88,77.28,22.32,9.71,2.94,32.04,11.74,44.64,9.36,9.47-1.79,18.17-7.67,26.4-11.28,17.47-7.67,35.08-15.74,52.32-23.28,20.64-8.96,41.28-17.92,61.92-26.88,8.32-3.51,17.13-7.79,25.44-10.56,1.95-.65,3.09-.36,4.56-1.2Z"/>
  <path class="cls-1" d="M99.12,115.2l-1.44.72c-.24.64-.48,1.28-.72,1.92h.24c4.65-4.53,12.2,1.25,17.76-.24-5.1-.87-9.56-2.35-15.84-2.4Z"/>
  <path class="cls-1" d="M92.88,115.68l.24.48-.24-.48Z"/>
  <path class="cls-1" d="M400.32,116.4c-13.12,5.52-26.24,11.04-39.36,16.56-38.4,17.04-76.8,34.08-115.2,51.12,4.56-2,9.12-4,13.68-6,7.74-3.36,15.52-6.48,22.8-9.6,26.83-11.5,52.23-23.02,79.2-34.56,10.32-4.32,20.64-8.64,30.96-12.96,3.6-1.42,6.36-3.47,11.28-3.6l-.24.48c-9.55,1.17-22.71,9.48-31.2,13.2-19.75,8.65-39.34,16.7-58.56,25.92-5.84,3.04-11.68,6.08-17.52,9.12-6.88,2.96-13.76,5.92-20.64,8.88-5.93,2.32-13.21,3.79-18.24,7.68,5.21-1.4,9.36-5.05,15.12-6.24v.24h-.48c-2.64,1.2-5.28,2.4-7.92,3.6-9.51,4.17-19.21,9.27-30.24,12v.24c8.19-1.09,14.61-5.16,21.6-7.44l-.24.48c-6.08,2.56-12.16,5.12-18.24,7.68,10.7-3.33,19.23-8.51,28.56-12.72,10.88-4.88,21.76-9.76,32.64-14.64,11.2-5.52,22.4-11.04,33.6-16.56,19.1-7.51,37.68-16.83,56.16-24.96,6-2.32,12-4.64,18-6.96v-.24c-1.84-.24-3.68-.48-5.52-.72Z"/>
  <path class="cls-1" d="M98.16,117.6l-1.2,1.2c-1.91,3.35-.83,9.54,1.92,11.04-2.37-3.89-3.08-7.99,0-11.28,5.25-.01,12.11,3.52,15.36,2.64-2.71-.41-13.34-4.62-15.12-3.12h1.44c-1.61.2-2.24.69-3.36,1.2.33-.58,1.69-1.64.96-1.68Z"/>
  <path class="cls-1" d="M407.04,118.32l-.48.24v.48c.56-.08,1.12-.16,1.68-.24v-.24l-1.2-.24Z"/>
  <path class="cls-1" d="M405.6,118.56c-4.96,2.32-9.92,4.64-14.88,6.96-13.72,6.59-27.75,12.97-42,19.2-31.2,14.4-62.4,28.8-93.6,43.2v.24c3.76-.42,6.61-2.98,9.6-4.32,8.72-3.92,17.44-7.84,26.16-11.76,26.48-12.08,52.96-24.16,79.44-36.24,9.15-4.02,17.89-8.27,26.64-12.48,2.67-1.28,7.88-2.36,9.36-4.8h-.72Z"/>
  <path class="cls-1" d="M299.76,120.24c-8.48,4.64-20.24,5.2-27.6,11.04,6.88-2.72,13.76-5.44,20.64-8.16,2-.81,6.27-1.6,6.96-2.88Z"/>
  <path class="cls-1" d="M159.6,120.72c4.08,1.28,8.16,2.56,12.24,3.84,10.7,3.79,21.64,7.73,33.36,10.56-3.57-2.42-9.37-2.8-13.68-4.32-9.47-3.35-21.58-8.78-31.92-10.08Z"/>
  <path class="cls-1" d="M98.64,120.96l-.96,1.2v2.88c.37-4.73,5.65-2.64,9.36-1.68,9.5,2.45,18.42,6.12,27.36,8.88-5.32-3.97-27.22-10.67-35.76-11.28Z"/>
  <path class="cls-1" d="M277.68,120.96c-3.2,1.68-6.4,3.36-9.6,5.04,2.3-.62,9.69-3.95,9.6-5.04Z"/>
  <path class="cls-1" d="M411.84,121.68c-21.28,9.44-42.56,18.88-63.84,28.32-21.36,9.41-42.61,19.52-64.32,29.04-12.73,5.58-26.12,12.22-39.6,16.8v.24c4.24-1.6,8.48-3.2,12.72-4.8,10.31-4.13,20-8.49,29.76-12.72,27.62-11.97,54.4-24.96,81.6-36.96,15.04-6.64,30.08-13.28,45.12-19.92h-1.44Z"/>
  <path class="cls-1" d="M250.8,122.88c7.21,1.17,12.09,30.06,5.28,36h-.24c1.55-8.93,1.84-20.2-1.44-28.08-1.44-2.56-2.88-5.12-4.32-7.68l.72-.24Z"/>
  <path class="cls-1" d="M247.44,124.32h.72c4.06,3.24,13.3,30.84,4.56,36h-.24c1.05-9.01,1.47-18.83-1.68-26.4-1.68-3.04-3.36-6.08-5.04-9.12.56-.16,1.12-.32,1.68-.48Z"/>
  <path class="cls-1" d="M99.12,124.8l-.48.72c4.15-.54,7.93,1.45,11.76,2.16-2.22-1.91-7.44-2.87-11.28-2.88Z"/>
  <path class="cls-1" d="M98.16,126c.19,1.48.92,2.48,1.92,3.12-.08-.4-.16-.8-.24-1.2,9.36,2.8,18.72,5.6,28.08,8.4,2.93,1.02,8.77,3.99,11.76,3.36-9.6-3.2-19.2-6.4-28.8-9.6-4.21-1.43-9.46-1.71-12.72-4.08Z"/>
  <path class="cls-1" d="M241.92,126.24c1.13-.03,1.64-.04,2.16.48,5.03,3.85,7.64,14.45,7.68,23.04.02,4.4.45,10.92-2.88,12v-1.2c2.96-10.08-1.47-23.47-5.04-29.52-1.04-1.52-2.08-3.04-3.12-4.56l1.2-.24Z"/>
  <path class="cls-1" d="M265.92,126.48c-.64.4-1.28.8-1.92,1.2,1.28-.33,1.99-.83,1.92-1.2Z"/>
  <path class="cls-1" d="M196.32,127.68c2.06,1.46,10.18,4.58,12.48,4.08-4.16-1.36-8.32-2.72-12.48-4.08Z"/>
  <path class="cls-1" d="M263.28,127.68l-.24.48.48-.48h-.24Z"/>
  <path class="cls-1" d="M238.56,127.92c6.29,2.05,11.95,28.11,6.72,36l-1.44-.24c4.53-10.77-3.01-28.49-6.96-34.56.49-.77.94-.73,1.68-1.2Z"/>
  <path class="cls-1" d="M261.84,128.16c-.8.48-1.6.96-2.4,1.44h.96c.72-.48,1.44-.96,2.16-1.44h-.72Z"/>
  <path class="cls-1" d="M300.48,128.16c-3.92,1.68-7.84,3.36-11.76,5.04-8.12,3.56-16.65,8.15-25.68,10.56-.08.64-.16,1.28-.24,1.92,8.17-3.84,17.46-8.11,25.92-11.76,4.02-1.73,9.57-2.84,12.48-5.76h-.72Z"/>
  <path class="cls-1" d="M232.32,129.84c2.09-.08,2.77.21,3.84.96,2.98,7.24,11.63,24.99,4.8,35.04-.56.16-1.12.32-1.68.48v-.24c4.97-11.88-1.89-29.12-6.96-36.24Z"/>
  <path class="cls-1" d="M99.84,130.08c.4.48.8.96,1.2,1.44-.4-.48-.8-.96-1.2-1.44Z"/>
  <path class="cls-1" d="M229.92,131.28l1.44.24c1.28,2.4,2.56,4.8,3.84,7.2,2.33,5.64,6.4,25.88-.24,29.52,1.35-10.77.22-21.47-3.36-29.76-1.28-2.32-2.56-4.64-3.84-6.96.72-.08,1.44-.16,2.16-.24Z"/>
  <path class="cls-1" d="M209.04,132l.96.48-.96-.48Z"/>
  <path class="cls-1" d="M430.32,135.84c.72,1.4-1.29,4.74-2.16,6.24-4.48.13-8.27,2.65-11.76,4.08-8.56,3.44-17.12,6.88-25.68,10.32-35.04,14.56-70.08,29.12-105.12,43.68l-.96-1.2v-.24c28.08-12.16,56.16-24.32,84.24-36.48,14.56-6.16,29.12-12.32,43.68-18.48,6.12-2.61,12.72-4.25,17.76-7.92Z"/>
  <path class="cls-1" d="M426.24,143.76h.96v1.2l-.48,1.2c-12.56,5.04-25.12,10.08-37.68,15.12-19.76,8.08-39.52,16.16-59.28,24.24-13.92,5.84-27.84,11.68-41.76,17.52l-1.2-1.44v-.24c32.8-13.76,65.6-27.52,98.4-41.28,13.68-5.44,27.36-10.88,41.04-16.32Z"/>
  <path class="cls-1" d="M265.44,146.88c-.88.48-1.76.96-2.64,1.44v.48h.24c1.04-.64,2.08-1.28,3.12-1.92h-.72Z"/>
  <path class="cls-1" d="M271.68,146.88l-.48.24v.24c.59-.33.59.03.48-.48Z"/>
  <path class="cls-1" d="M270.48,147.36l-.24.48.72-.48h-.48Z"/>
  <path class="cls-1" d="M269.52,147.84l-.48.24v.24c.59-.33.59.03.48-.48Z"/>
  <path class="cls-1" d="M425.52,148.08h.96c-.08.64-.16,1.28-.24,1.92l-.72.48c-7.52,3.2-15.04,6.4-22.56,9.6-7.68,2.8-15.36,5.6-23.04,8.4-18.8,8-37.6,16-56.4,24-11.12,4.96-22.24,9.92-33.36,14.88-.08-1.67-.31-1.2-1.2-2.4l.24-.72c25.92-11.04,51.84-22.08,77.76-33.12,19.52-7.68,39.04-15.36,58.56-23.04Z"/>
  <path class="cls-1" d="M83.04,148.56c7.24.49,12.86,4.08,18.72,6.24,8.96,3.2,17.92,6.4,26.88,9.6,26.4,9.44,52.8,18.88,79.2,28.32,11.86,4.63,27.06,7.68,36.48,15.12,8.82,6.97,16.57,28.48,8.64,41.76-2.38,3.99-6.42,7.65-11.76,8.64-5.91,1.1-27.41-8.79-32.88-11.04-30.32-12.8-60.64-25.6-90.96-38.4-8.8-3.76-17.6-7.52-26.4-11.28-5.04-2.08-10.62-3.37-14.64-6.48-9.47-7.35-12.7-30.07-1.92-38.64,2.69-2.14,4.93-2.39,8.64-3.84Z"/>
  <path class="cls-1" d="M265.92,149.28l-.96.72c1.13-.4,1.04-.31.96-.72Z"/>
  <path class="cls-1" d="M425.28,151.92h.96v1.44l-.24.72c-34.46,14.75-70.2,27.42-103.68,43.2-7.76,3.52-15.52,7.04-23.28,10.56-2.31,1.13-6.59,4-7.68,2.4v-.24c4.16-2.32,8.32-4.64,12.48-6.96-4.62.93-9.12,4.46-12.72,6.72l-.48-1.2c6.04-5.67,23.75-10.69,32.4-14.4,23.04-9.76,46.08-19.52,69.12-29.28,3.44-.96,6.88-1.92,10.32-2.88,4.48-2.08,8.96-4.16,13.44-6.24,3.12-1.28,6.24-2.56,9.36-3.84Z"/>
  <path class="cls-1" d="M81.84,152.16c-3.06,1.64-5.51,2.6-7.44,5.28-6.42,8.92-2.91,25.34,4.32,30.48,4.17,2.96,9.5,4.57,14.4,6.72,9.23,4.05,18.53,8.38,28.08,12.48,28.44,12.2,57.55,24.28,86.4,36.48,6.56,2.48,13.12,4.96,19.68,7.44,3.94,1.56,8.78,4.73,13.92,4.56,3.99-.13,7.74-4.05,9.36-6.72,7.32-12.07-1.26-33.74-8.88-39.36-9.17-6.77-22.97-9.45-34.08-13.92-25.77-10.37-53.16-18.34-79.68-28.56-8.64-3.04-17.28-6.08-25.92-9.12-6.32-2.28-11.8-5.68-20.16-5.76Z"/>
  <path class="cls-1" d="M425.76,155.76c.81.53.75.8.72,2.16-11.92,4.96-23.84,9.92-35.76,14.88-18.43,7.47-36.26,14.3-54,22.08-14.72,6.56-29.44,13.12-44.16,19.68-.16-.88-.32-1.76-.48-2.64,7.84-3.6,15.68-7.2,23.52-10.8,15.28-6.56,30.56-13.12,45.84-19.68,21.44-8.56,42.88-17.12,64.32-25.68Z"/>
  <path class="cls-1" d="M78.72,156.96c-1.04,2.88-2.08,5.76-3.12,8.64-1.27,5.8,1.28,13.08,4.32,15.6,1.76,1.2,3.52,2.4,5.28,3.6v.24h-.24c-12.4-4.04-14.62-18.11-6.24-28.08Z"/>
  <path class="cls-1" d="M306.48,159.12c-6.32,2.88-12.64,5.76-18.96,8.64v.24c2.94-.52,18.39-7.62,18.96-8.88Z"/>
  <path class="cls-1" d="M89.04,159.36h2.4l-.24.48c-2.83.07-3.87,1.43-4.8,3.36,1.86-1.22,3.02-2.07,5.76-2.64l-.24.48c-2.82.25-5.33,2.09-5.76,4.8,4.97-3.16,11.08-1.51,16.56.24-3.66-3.02-11.31-3.34-15.84-1.44.85-1.16,1.99-2,3.6-2.4v.24l-.72.48c1.44-.32,2.88-.64,4.32-.96-.8-.08-1.6-.16-2.4-.24,2.06-2.16,7.11.04,9.36.96,8.72,3.2,17.44,6.4,26.16,9.6,28.53,10.04,58.96,18.83,86.16,30,7.9,3.24,23.97,6.78,29.04,12.48v.24h-.24c-11.91-7.16-27.63-9.71-40.32-15.84l.24.48c6.64,2.72,13.28,5.44,19.92,8.16,6.65,2.65,15.12,3.94,20.64,7.92,1.44,2.16,2.88,4.32,4.32,6.48,3.35,7.68,5.6,24.67-3.6,27.6-3.94,1.25-8.04-1.58-10.8-2.64-8.88-3.52-17.76-7.04-26.64-10.56-24.41-10.08-48.81-20.23-72.72-30.24-11.52-5.04-23.04-10.08-34.56-15.12-7.56-4.43-21.67-22.04-9.6-31.92Z"/>
  <path class="cls-1" d="M426,159.6c.92.32.5,0,.96.72l.24,1.44c-16.4,6.96-32.8,13.92-49.2,20.88-5.7,2.41-14.7,3.9-18.72,8.16,16.64-6.72,33.28-13.44,49.92-20.16,3.62-1.72,14.92-8.07,18.72-7.44l.72,1.44-.24.48c-4.8,1.2-9,3.69-13.2,5.52-10.48,4.64-20.96,9.28-31.44,13.92-30.24,13.44-60.48,26.88-90.72,40.32,1.16-4.94,17.06-9.85,22.08-12.24,14.8-6.64,29.6-13.28,44.4-19.92,5.74-2.43,16.4-5.15,20.4-9.12-21.84,9.28-43.68,18.56-65.52,27.84-3,1.28-21.12,10.56-21.12,10.56.24-1.08.15-2.07.96-2.64,19.1-9.5,39.4-18.38,59.04-27.36,8.08-3.92,16.16-7.84,24.24-11.76-28.08,12.8-56.16,25.6-84.24,38.4v-1.92c2.96-1.52,5.92-3.04,8.88-4.56-3.12,1.28-6.24,2.56-9.36,3.84v-.24l.24-.72c11-2.9,21.08-9.58,31.2-13.92,19.56-8.39,38.8-16.54,58.8-24.48l-.48.72c7.83-1.55,15.54-6.83,22.56-9.84,6.88-2.95,14.73-4.12,20.88-7.92Z"/>
  <path class="cls-1" d="M430.56,161.28c3.9.13,11.3,2.76,13.2,5.28-.23,1.19.13,2.83-.72,4.08-1.47,2.17-5.85,2.97-8.4,4.08-8.08,3.6-16.16,7.2-24.24,10.8-29.04,12.96-58.08,25.92-87.12,38.88-5.48,2.35-28.02,14.67-32.64,13.92,1-3.4,6.33-4.08,9.36-5.52,9.44-4.24,18.88-8.48,28.32-12.72,27.04-12.24,54.08-24.48,81.12-36.72,7.92-3.52,15.84-7.04,23.76-10.56,3.57-1.54,6.79-2.37,9.36-4.8v-.24c-3.79-.88-10.35-3.21-12-6.48Z"/>
  <path class="cls-1" d="M100.08,163.68c3.34,2.47,7.8,3.08,12,4.8,10.82,4.42,22.18,8.48,34.08,12.24,15.04,5.04,30.08,10.08,45.12,15.12,4.24,1.84,8.48,3.68,12.72,5.52-10.93-7.47-26.44-9.78-39.6-14.88-13.28-4.48-26.56-8.96-39.84-13.44-8.16-3.12-16.32-6.24-24.48-9.36Z"/>
  <path class="cls-1" d="M89.04,164.64c-.88.48-1.76.96-2.64,1.44-1.14,4.19-.57,9.86,1.68,12.72-4.22-14.59,2.64-13.92,14.4-10.8-5.15-3.79-11.9-3.14-16.08.48.47-2.58,1.85-2.81,3.84-3.84h-1.2Z"/>
  <path class="cls-1" d="M428.16,166.56l1.2.48v.96c-45.6,20.24-91.2,40.48-136.8,60.72v-.72l.24-.72c1.87-2.28,5.09-2.73,7.92-4.08,10-4.4,20-8.8,30-13.2,20.48-9.36,40.96-18.72,61.44-28.08,12-5.12,24-10.24,36-15.36Z"/>
  <path class="cls-1" d="M446.88,168c5.86,2.36,14.35,4.41,18,9.12,10.57,13.66,8.91,40.65-3.6,50.4-7.52,5.86-17.35,9.44-26.16,13.92-18.24,9.36-36.48,18.72-54.72,28.08-25.2,12.96-50.4,25.92-75.6,38.88-19.55,10.3-36.75,21.23-59.04,29.04,2.56-3.56,9.05-4.51,12.96-6.72,10-5.36,20-10.72,30-16.08,20.18-11.77,41.8-21.16,62.64-32.4,18.4-9.68,36.8-19.36,55.2-29.04,10.89-5.61,21.85-10.86,32.4-16.56,3.81-2.06,10.99-3.78,13.44-7.2-8.4,4.16-16.8,8.32-25.2,12.48-14.43,7.34-29.03,14.32-42.96,21.84-26.48,13.44-52.96,26.88-79.44,40.32-11.6,6.16-23.2,12.32-34.8,18.48-5.73,3.37-11.76,7.46-18.48,9.6,3.08-3.04,8.13-4.52,12-6.72,12.91-7.32,26.79-13.76,39.84-21.36,36.48-18.8,72.96-37.6,109.44-56.4,10.08-4.96,20.16-9.92,30.24-14.88,4.96-2.08,9.92-4.16,14.88-6.24,14.21-8.72,14.96-40.62,1.68-51.12-3.64-2.88-7.88-4.11-13.2-4.8v-.24c.16-.8.32-1.6.48-2.4Z"/>
  <path class="cls-1" d="M90,168.24c-3.08,3.18-3.06,10.8.72,14.16-.81-2.58-3.62-6.7-2.16-10.32,1.51-3.63,8.77-2.49,12.48-1.44,10.64,4,21.28,8,31.92,12-3.76-1.52-7.52-3.04-11.28-4.56-6.96-2.72-13.92-5.44-20.88-8.16-3.12-.4-6.24-.8-9.36-1.2.72-.16,1.44-.32,2.16-.48h-3.6Z"/>
  <path class="cls-1" d="M283.2,169.68c-2.72,1.44-5.44,2.88-8.16,4.32,1.66-.46,8.99-4.06,8.16-4.32Z"/>
  <path class="cls-1" d="M90.24,171.12c-.48.64-.96,1.28-1.44,1.92h.24c2.63-3.79,9.9.52,12.96-.24-3.9-.47-6.8-1.65-11.76-1.68Z"/>
  <path class="cls-1" d="M102.24,173.04l.72.24-.72-.24Z"/>
  <path class="cls-1" d="M91.92,173.52c-.56.32-1.12.64-1.68.96-.24.96-.48,1.92-.72,2.88h.24v-.48c.66-.83.95-1.62,1.92-2.16,3.9-2.15,9.44,1.68,12.72.96-4.03-1.01-7.24-2.14-12.48-2.16Z"/>
  <path class="cls-1" d="M272.88,174l-.48.24v.24c.59-.33.59.03.48-.48Z"/>
  <path class="cls-1" d="M269.28,175.2c-7.1,4.38-15.91,8.09-24,11.04-3.92,1.04-7.84,2.08-11.76,3.12,10.21.05,20.85-5.95,27.84-10.08,1.83-1.08,7.97-2.97,7.92-4.08Z"/>
  <path class="cls-1" d="M104.64,175.92l.72.24-.72-.24Z"/>
  <path class="cls-1" d="M272.64,175.92h.48l-.72.48.24-.48Z"/>
  <path class="cls-1" d="M91.44,176.16l-1.2.96v.24h.24c3.66-1.52,8.39.52,11.28,1.44,8.4,2.64,16.8,5.28,25.2,7.92,1.9.74,5.54,2.77,7.44,2.4-9.69-2.77-19.13-6.65-29.28-9.84-4.32-1.36-7.85-3.09-13.68-3.12Z"/>
  <path class="cls-1" d="M454.56,178.08c2.51.13,3.87,1.42,4.8,3.12-2.25,4.22-7.83,5.89-12.24,7.92-11.76,5.04-23.52,10.08-35.28,15.12-42.33,18.49-83.03,39.12-122.88,60-12.32,6-24.64,12-36.96,18-2.83,1.34-10.2,5.92-13.44,3.6l.24-.48c9.84-2.33,19.57-8.6,28.08-12.96,17.68-9.12,35.36-18.24,53.04-27.36,13.4-7.15,26.13-12.86,40.56-19.2,11.52-5.68,23.04-11.36,34.56-17.04,20.45-9.01,39.66-18.14,59.04-27.6.72.48,1.44.96,2.16,1.44l-.48-1.2c-.56-.32-1.12-.64-1.68-.96-4,2.08-8,4.16-12,6.24-14.16,6.24-27.8,13.57-42.24,19.68-10.08,4.48-20.16,8.96-30.24,13.44,3.68-1.52,7.36-3.04,11.04-4.56l-.48.72c-10.7,3.3-19.55,11.02-30.72,13.44,5.28-2.56,10.56-5.12,15.84-7.68,10.28-5.26,21.52-10.47,32.64-15.36,18.8-8.28,37.25-19.9,56.88-27.12v-.24c-4.04.51-7.11,3.34-10.32,4.8-8.25,3.74-16.11,7.57-24,11.04-24.2,10.65-48.27,22.16-71.76,33.84-9.6,4.88-19.2,9.76-28.8,14.64,3.04-1.68,6.08-3.36,9.12-5.04,9.78-5.29,20.5-10.5,30.48-15.6,5.09-2.6,11.16-4.55,15.36-8.16-11.92,6-23.84,12-35.76,18-21.6,11.28-43.2,22.56-64.8,33.84-8.71,5.05-17.79,8.75-27.36,13.2-3.52,1.52-7.04,3.04-10.56,4.56-14.64-6.08-29.28-12.16-43.92-18.24-35.36-13.28-70.72-26.56-106.08-39.84-12.48-4.32-24.96-8.64-37.44-12.96-2.42-.93-9.6-4.58-11.52-2.16l.24.48c17.04,6.08,34.08,12.16,51.12,18.24,12.4,4.4,24.8,8.8,37.2,13.2,28.13,11.45,57.16,21.64,84.96,33.12,16.48,6.8,32.26,10.83,37.68,28.8,1.12,3.71,1.95,10.43.48,14.64-1.67,4.78-5.65,10.54-10.8,11.76-4.92,1.17-9-1.86-12-3.12-9.04-3.6-18.08-7.2-27.12-10.8-31.12-13.04-62.24-26.08-93.36-39.12-18.63-7.64-38.65-13.3-55.92-22.8l.48-.72.72-.24c5.08.65,10.22,3.78,14.4,5.76,9.68,3.92,19.36,7.84,29.04,11.76,35.47,14.16,70.33,27.88,104.4,42.72,9.2,3.76,18.4,7.52,27.6,11.28,2.75,1.18,6.61,4.74,11.04,3.6,4.14-1.06,6.95-6.02,8.16-10.08,1.47-4.93.61-11.72-.96-15.6-7.83-19.35-27.88-22.09-46.8-30-37.53-15.68-76.67-29.59-115.44-43.68-8.64-3.04-17.28-6.08-25.92-9.12-8.08-2.89-18.21-4.83-23.52-10.56v-1.2c3.25-3.2,9.56-4.24,13.92-6.24,6.41-2.95,18.1-10.03,24.96-11.04,1.44,1.68,2.88,3.36,4.32,5.04,2.58,3.41,4.96,7.08,8.4,9.6,6.84,5,15.39,7.5,23.52,11.28,13.68,5.68,27.36,11.36,41.04,17.04,22.32,9.04,44.64,18.08,66.96,27.12,9.43,3.86,25.09,11.92,36,12.72,4.21.31,13.16-5.47,16.56-7.2,13.3-6.76,26.48-13.41,39.36-20.4,26.1-14.16,52.61-27.48,80.16-39.6,20.16-9.44,40.32-18.88,60.48-28.32,1.92-.4,3.84-.8,5.76-1.2Z"/>
  <path class="cls-1" d="M90.24,178.56l-.24,1.44h.24v-1.44Z"/>
  <path class="cls-1" d="M379.92,178.8l-.48.24v.24l.48-.48Z"/>
  <path class="cls-1" d="M92.64,179.52c-.56,1.04-1.12,2.08-1.68,3.12l.72.72c.02-1.69.33-1.96.96-2.88,8.11.02,20.45,9.05,25.44,8.16-8.61-2.05-15.38-8.85-25.44-9.12Z"/>
  <path class="cls-1" d="M258.72,179.52c-5.36,2.16-10.72,4.32-16.08,6.48v.24c3.35-.35,14.38-4.83,16.8-6.72h-.72Z"/>
  <path class="cls-1" d="M449.28,179.76c-2.93,2.84-8.53,4.06-12.48,5.76-8.16,3.76-16.32,7.52-24.48,11.28-2.83,1.21-4.29,3.15-7.44,3.6v.48h.72c10.16-4.88,20.32-9.76,30.48-14.64,1.89-.84,15.51-6.45,13.2-6.48Z"/>
  <path class="cls-1" d="M94.32,184.08l.48.48-.48-.48Z"/>
  <path class="cls-1" d="M245.04,184.08c-2.08.96-4.16,1.92-6.24,2.88,2.18-.21,6.24-2.88,6.24-2.88Z"/>
  <path class="cls-1" d="M95.52,185.04c3.09,3.33,11.21,4.68,15.6,6.48,13.04,5.28,26.08,10.56,39.12,15.84-4.26-3.64-11.65-5.16-17.04-7.44-7.92-3.2-15.84-6.4-23.76-9.6-4.34-1.83-8.91-4.31-13.92-5.28Z"/>
  <path class="cls-1" d="M458.16,185.52c2.19-.06,2.7.49,3.12,2.16-6,2.48-12,4.96-18,7.44-18.64,8.32-37.28,16.64-55.92,24.96-12.08,5.68-24.16,11.36-36.24,17.04-.56-.48-1.12-.96-1.68-1.44v-.24l17.76-8.88c15.28-6.96,30.56-13.92,45.84-20.88,10.4-4.56,20.8-9.12,31.2-13.68,4.64-2.16,9.28-4.32,13.92-6.48Z"/>
  <path class="cls-1" d="M349.44,185.76h.72v.24c-1.92.8-3.84,1.6-5.76,2.4,1.68-.88,3.36-1.76,5.04-2.64Z"/>
  <path class="cls-1" d="M93.84,186c1.11,1.55,4.08,2.68,6,3.36-2-1.12-4-2.24-6-3.36Z"/>
  <path class="cls-1" d="M461.76,186.48c.92.32.5,0,.96.72.48,1.76.96,3.52,1.44,5.28l-.72-.24c-.56-1.92-1.12-3.84-1.68-5.76Z"/>
  <path class="cls-1" d="M246.48,186.96c-2.26,1.38-5.42,1.81-8.4,2.4v.24c2.63-.08,8.4-2.64,8.4-2.64Z"/>
  <path class="cls-1" d="M223.2,188.4c1.12.68,3.98.63,5.28,0h-5.28Z"/>
  <path class="cls-1" d="M231.36,188.88c-1.36.32-2.72.64-4.08.96v.24c1.76-.4,3.52-.8,5.28-1.2h-1.2Z"/>
  <path class="cls-1" d="M134.88,189.36l.72.48-.72-.48Z"/>
  <path class="cls-1" d="M459.12,190.08c.64.08,1.28.16,1.92.24.08.56.16,1.12.24,1.68-4.88,2.16-9.76,4.32-14.64,6.48-12.75,5.24-24.73,11.16-36.96,16.56-18.48,8.56-36.96,17.12-55.44,25.68l-1.2-.96-.24-.72c5.12-5.22,22.82-11.74,30.48-15.12,14.24-6.56,28.48-13.12,42.72-19.68,11.04-4.72,22.08-9.44,33.12-14.16Z"/>
  <path class="cls-1" d="M233.52,190.56c-1.28.32-2.56.64-3.84.96,2.32.06,4.62-.16,6.24-.96h-2.4Z"/>
  <path class="cls-1" d="M174,192.48l1.2.48c-.48-.38-.33-.31-1.2-.48Z"/>
  <path class="cls-1" d="M175.44,192.96c7.43,5,18.45,6.18,27.12,9.6,12.64,5.2,25.28,10.4,37.92,15.6-4.66-4.52-13.25-6-19.68-8.64-10.55-4.33-21.44-8.33-33.36-12.48-4-1.36-8-2.72-12-4.08Z"/>
  <path class="cls-1" d="M461.52,192.96c.82.32.5.15.96.72l-.48.72c-3.44,1.2-6.88,2.4-10.32,3.6,3.68-1.04,7.36-2.08,11.04-3.12v.24c-.22.62-.29,1.04-.72,1.44-2.16.56-4.32,1.12-6.48,1.68-5.58,1.97-11.4,4.76-17.04,7.44-27.1,12.85-54.84,26.24-82.56,38.4-.32-.88-.64-1.76-.96-2.64,24.4-11.36,48.8-22.72,73.2-34.08,11.12-4.8,22.24-9.6,33.36-14.4Z"/>
  <path class="cls-1" d="M245.04,193.44c-1.04.56-2.08,1.12-3.12,1.68,1.44-.34,3.19-1.22,3.12-1.68Z"/>
  <path class="cls-1" d="M464.16,193.44c.86,1.29.52,3.77.48,5.52h-.72l-.24-.72c.36-1.23-.1-3.3.48-4.8Z"/>
  <path class="cls-1" d="M238.08,194.4l.72.24-.72-.24Z"/>
  <path class="cls-1" d="M80.16,194.64c13.68,5.92,27.36,11.84,41.04,17.76,26.24,10.88,52.48,21.76,78.72,32.64,11.96,5.04,24.53,11.36,37.44,14.88,5.94,1.62,9.94-1.29,13.68-3.12,8.88-4.08,17.76-8.16,26.64-12.24,2.34-1.14,11.8-6.74,13.92-4.8l-.48.48c-1.87,2.66-19.98,9.69-24.24,11.76-4.01,1.95-20.91,11.25-25.68,10.32-3.84-1.44-7.68-2.88-11.52-4.32-9.04-3.6-18.08-7.2-27.12-10.8-24.31-10.35-48.8-19.93-72.72-30.24-11.84-5.12-23.68-10.24-35.52-15.36-4.39-2.1-11.14-3.43-14.16-6.96Z"/>
  <path class="cls-1" d="M240.48,195.36l-.24.48.72-.48h-.48Z"/>
  <path class="cls-1" d="M194.88,196.08c3.24,2.97,10.49,4.53,15.12,5.76-4.03-2.92-10.25-3.83-15.12-5.76Z"/>
  <path class="cls-1" d="M459.36,197.76h.96v.24c-3.29.64-7.83,4.39-11.04,3.6,3.36-1.28,6.72-2.56,10.08-3.84Z"/>
  <path class="cls-1" d="M462.72,201.6c-5.29-.12-11.63,1.83-14.4,4.08,4.32-1.28,8.64-2.56,12.96-3.84l-.24.48c-15.42,4.45-27.58,11.03-41.04,16.8-21.48,9.2-42.07,18.32-62.4,28.56l-.48-.72c-.56-.94-.45-1.51,0-2.4,8.96-4.24,17.92-8.48,26.88-12.72,14.4-6.4,28.8-12.8,43.2-19.2,7.36-3.73,14.78-6.84,23.04-10.08,3.85-1.51,7.86-3.86,12.48-4.32l-.48,1.2c-2.8.96-5.6,1.92-8.4,2.88v.24c2.96-.88,5.92-1.76,8.88-2.64v1.68Z"/>
  <path class="cls-1" d="M280.32,198.72l1.44.24c3.64,7.46,11.43,15.97,7.68,28.8-.6,2.05-.97,4.08-2.64,5.04,6.05-12.35-1.66-26.63-7.68-33.12l1.2-.96Z"/>
  <path class="cls-1" d="M464.16,199.44h.48c1.15,5-.33,9.46-3.84,11.28.39-1.76,1.6-2.78,2.16-4.08.4-2.4.8-4.8,1.2-7.2Z"/>
  <path class="cls-1" d="M277.44,200.64c5.36,2.52,15.3,28.72,6.24,34.56,1.98-9.37.63-20.93-3.6-28.08-1.36-1.92-2.72-3.84-4.08-5.76l1.44-.72Z"/>
  <path class="cls-1" d="M403.68,200.88c-7.21,4.4-19.97,7.17-25.44,12.96,4.9-2.33,22.14-12.66,26.4-12.48l-.96-.48Z"/>
  <path class="cls-1" d="M204.24,201.36c.88.4,1.76.8,2.64,1.2-.88-.4-1.76-.8-2.64-1.2Z"/>
  <path class="cls-1" d="M306.48,201.6l-1.44.96,1.44-.96Z"/>
  <path class="cls-1" d="M273.12,201.84l1.44.24c4.64,2.23,8.48,14.37,9.12,21.12.45,4.74.41,11.84-2.88,12.96,2.05-9.42.31-20.09-3.12-26.88-1.52-2.48-3.04-4.96-4.56-7.44Z"/>
  <path class="cls-1" d="M462.24,202.08c.67,1.43-.18,3.73-1.2,4.32-6.64,2.48-13.28,4.96-19.92,7.44,1.73-1.59,14.25-7.15,14.88-6.72,2.08-1.68,4.16-3.36,6.24-5.04Z"/>
  <path class="cls-1" d="M207.12,202.56l1.44.72-1.44-.72Z"/>
  <path class="cls-1" d="M198,203.04l.72.24-.72-.24Z"/>
  <path class="cls-1" d="M198.96,203.28c.64.32,1.28.64,1.92.96-.64-.32-1.28-.64-1.92-.96Z"/>
  <path class="cls-1" d="M268.32,203.52h2.4c4.87,6.37,11.19,15.65,8.88,28.08-.53,2.88-.32,4.56-2.16,6h-.24c.16-8.87.22-17.01-2.64-23.28-1.34-2.94-6.46-8.14-6.24-10.8Z"/>
  <path class="cls-1" d="M458.64,203.52h.96l-.72.96c-8.29,2.67-17.78,9.39-26.4,13.2-15.84,7.04-31.68,14.08-47.52,21.12-8.88,4.32-17.76,8.64-26.64,12.96v-.48c-.24-.64-.48-1.28-.72-1.92,1.72-1.86,4.84-2.64,7.2-3.84,6.56-3.2,13.12-6.4,19.68-9.6,17.65-7.78,35.9-16.98,53.52-24.72,4.16-1.68,8.32-3.36,12.48-5.04,2.72-.88,5.44-1.76,8.16-2.64Z"/>
  <path class="cls-1" d="M294,203.76c-1.04.64-2.08,1.28-3.12,1.92,1.04-.64,2.08-1.28,3.12-1.92Z"/>
  <path class="cls-1" d="M400.08,203.76l-12,6c2.11-.79,12.07-5.47,12-6Z"/>
  <path class="cls-1" d="M264,205.68c7.8,1.06,15.74,23.82,9.84,33.6-.64.16-1.28.32-1.92.48,2.52-14.36-2.12-25.7-8.16-33.6l.24-.48Z"/>
  <path class="cls-1" d="M305.76,206.4c-4.32,2.32-8.64,4.64-12.96,6.96v.24h.24c4.24-2.24,8.48-4.48,12.72-6.72v-.48Z"/>
  <path class="cls-1" d="M260.16,207.36l1.44.24c5.08,2.42,8.16,15.49,9.36,22.56.76,4.51.15,10.03-2.4,11.52h-.24c3.25-14.14-2.2-26.44-8.16-34.32Z"/>
  <path class="cls-1" d="M459.84,207.6h.96c-6.16,7.17-22.96,8.72-29.52,15.36,2.48-1.12,4.96-2.24,7.44-3.36v.24h-.48c-7.48,5.56-21.34,7.77-27.6,14.16,16.56-8.16,33.12-16.32,49.68-24.48-.97,4.22-18.85,11.92-23.52,14.16-14.7,7.06-29.91,13.75-45.12,20.4-10.8,5.52-21.6,11.04-32.4,16.56.23-4.73,7.91-5.54,10.56-8.16-3.6,1.76-7.2,3.52-10.8,5.28v-.96c11.52-5.6,23.04-11.2,34.56-16.8,15.31-6.73,29.48-14.3,43.92-21.6,5.68-2.56,11.36-5.12,17.04-7.68-9.78,1.85-22.81,10.57-31.44,14.88-12.56,5.92-25.12,11.84-37.68,17.76-8.99,4.28-18.51,7.56-26.4,12.96v-.48c-.08-1.04-.16-2.08-.24-3.12l22.56-11.28c18.4-8.4,36.8-16.8,55.2-25.2,3.1-1.44,22.4-7.36,23.28-8.64Z"/>
  <path class="cls-1" d="M209.28,207.84c.96.48,1.92.96,2.88,1.44-.96-.48-1.92-.96-2.88-1.44Z"/>
  <path class="cls-1" d="M452.4,208.8l-.48.24v.24l.48-.48Z"/>
  <path class="cls-1" d="M255.84,209.04c7.99.72,16.26,28.67,8.64,34.08h-.24c.18-8.74.38-16.79-2.4-23.52-2-3.52-4-7.04-6-10.56Z"/>
  <path class="cls-1" d="M212.4,209.28c2.15,1.63,20.45,8.79,22.56,8.4-7.52-2.8-15.04-5.6-22.56-8.4Z"/>
  <path class="cls-1" d="M252.72,210.72l1.2.24c5.99,3.03,11.47,24.07,7.92,33.36-1.2.4-2.4.8-3.6,1.2v-.24c2.99-7.37.21-20.07-2.16-25.92-.99-2.45-4.27-6.22-3.36-8.64Z"/>
  <path class="cls-1" d="M462.48,210.72l.48.24-.72.48.24-.72Z"/>
  <path class="cls-1" d="M228.24,210.96c3.2,1.2,6.4,2.4,9.6,3.6,2,1.44,4,2.88,6,4.32-.72-.88-1.44-1.76-2.16-2.64-4.26-1.69-8.23-4.29-13.44-5.28Z"/>
  <path class="cls-1" d="M462,211.44l1.2.48-.24.72c-2.74,2.37-9.05,4.5-12.96,5.28l.72-.96c3.6-1.08,8.7-3.16,11.28-5.52Z"/>
  <path class="cls-1" d="M474.24,212.16c.64.08,1.28.16,1.92.24h-.48c-1.12.72-2.24,1.44-3.36,2.16l.24-.96c.56-.48,1.12-.96,1.68-1.44Z"/>
  <path class="cls-1" d="M476.4,212.64c2.8.64,5.6,1.28,8.4,1.92l-.24.48c-2.32.97-9,6.54-9.84,4.56,2.64-.8,5.98-2.91,7.68-4.8-3.06,1.1-4.88,3.87-8.4,4.56-.35-.86-.41-.66-.96-1.2l.24-.48c2.3-.39,4.91-2.04,6.48-3.36-2.82.63-4.11,2.54-7.2,3.12.77-2.13,2.97-2.56,4.32-4.08-1.52.88-3.04,1.76-4.56,2.64l.96-1.44c1.04-.64,2.08-1.28,3.12-1.92Z"/>
  <path class="cls-1" d="M478.08,213.6c-1.36.96-2.72,1.92-4.08,2.88,1.01-.47,4.46-2.91,4.08-2.88Z"/>
  <path class="cls-1" d="M436.8,213.84c-.96.48-1.92.96-2.88,1.44,1.38-.32,2.95-1,2.88-1.44Z"/>
  <path class="cls-1" d="M219.84,214.08c.62.48.96.68,1.68.48-.56-.16-1.12-.32-1.68-.48Z"/>
  <path class="cls-1" d="M462.24,214.08c-.23.45-.98,1.17-2.16,1.44.72-.48,1.44-.96,2.16-1.44Z"/>
  <path class="cls-1" d="M480.96,214.08c-1.42,1.56-4.26,3.47-6.48,4.08v.48c1.33-.34,6.88-3.66,6.48-4.56Z"/>
  <path class="cls-1" d="M221.76,214.8c3.62,3.12,10.35,4.53,15.12,6.24-5.04-2.08-10.08-4.16-15.12-6.24Z"/>
  <path class="cls-1" d="M485.04,214.8c1.36.32,2.72.64,4.08.96l-.24.48c-4.16,2.16-8.32,4.32-12.48,6.48l-.24-.48.72-.72c3.28-1.92,6.56-3.84,9.84-5.76-3.16.48-9.56,6.43-11.28,5.52l.24-.48c2.8-.93,7.62-3.8,9.36-6Z"/>
  <path class="cls-1" d="M462,215.04c.56,3.65-19.6,11.68-23.76,13.68-26.88,13.44-53.76,26.88-80.64,40.32l.48-.72c1.84-4.99,19.07-11.65,24.48-14.4,19.12-9.28,38.24-18.56,57.36-27.84,5.64-2.49,19.06-7.06,22.08-11.04Z"/>
  <path class="cls-1" d="M458.64,215.28l1.2.24h-.48c-4.57,3.38-10.61,5.27-16.08,7.68-12.72,5.92-25.44,11.84-38.16,17.76-11.76,5.84-23.52,11.68-35.28,17.52-3.68,2.08-7.36,4.16-11.04,6.24.24-.96.48-1.92.72-2.88,7.36-4,14.72-8,22.08-12,13.84-6.4,27.68-12.8,41.52-19.2,7.92-3.68,15.84-7.36,23.76-11.04,3.92-1.44,7.84-2.88,11.76-4.32Z"/>
  <path class="cls-1" d="M489.6,216c.96.24,1.92.48,2.88.72v.48c-2.54.4-7.65,2.18-8.88,4.08,3.88-1.73,7.79-4.39,12.24-3.36-.07.57.05.3-.24.96-5.44,2.96-10.88,5.92-16.32,8.88-.48-1.12-.96-2.24-1.44-3.36,1.83-.46,4.42-2.27,5.52-3.6-2.08,1.12-4.16,2.24-6.24,3.36v-.72c4.16-2.48,8.32-4.96,12.48-7.44Z"/>
  <path class="cls-1" d="M489.6,216.96l-.72.72.72-.72Z"/>
  <path class="cls-1" d="M240.72,218.16l.72.48-.72-.48Z"/>
  <path class="cls-1" d="M492.96,218.16l-.48.24.72.24.48-.48h-.72Z"/>
  <path class="cls-1" d="M496.32,218.4c.96.32,1.92.64,2.88.96l-.24.48c-3.21.97-7.29,3.47-9.36,5.76,3.19-1.16,7.14-6.01,10.56-5.52,1.28.64,2.56,1.28,3.84,1.92v.96c-7.93,2.97-14.44,10.14-21.6,14.16v-.72l.48-.72c3.68-1.43,5.88-4.82,9.12-6.72,3.23-1.89,7.31-2.94,9.84-5.52-4.08,2.16-8.16,4.32-12.24,6.48-2.43,1.84-4.05,4.85-7.68,5.52l.24-.72c2-1.36,4-2.72,6-4.08-1.92,1.2-3.84,2.4-5.76,3.6h-.72c1.26-3.05,15.96-9.49,19.2-13.2-6.4,4-12.8,8-19.2,12l-.48-.24c.9-3.35,5.83-5.02,7.92-7.44-2.16.73-6.45,4.08-7.44,6h-.96c.75-2.11,3.44-2.75,4.8-4.32-1.83.94-3.2,2.62-5.28,3.12,1-3.16,13.88-8.42,17.04-10.8-4.37.83-13.12,6.89-16.8,9.6h-.72c1.42-3.53,13.27-7.59,16.56-10.56Z"/>
  <path class="cls-1" d="M298.08,218.64c-1.04.64-2.08,1.28-3.12,1.92.66-.18,3.65-1.67,3.12-1.92Z"/>
  <path class="cls-1" d="M490.8,218.88c-2.16,1.29-6.01,1.85-7.2,4.08,1.65-.89,7.38-3.93,7.2-4.08Z"/>
  <path class="cls-1" d="M243.12,219.6l.48.48-.48-.48Z"/>
  <path class="cls-1" d="M491.28,219.84c-2.74,1.97-6.38,2.59-8.4,5.28,1.42-.85,8.96-5.05,8.4-5.28Z"/>
  <path class="cls-1" d="M45.84,221.28c7.15,5.87,10.3,21.93,3.6,30.96-2.32,3.12-5.47,2.56-9.6,4.08,5.31.55,10.12,3.47,14.4,5.28,10.48,4.24,20.96,8.48,31.44,12.72,12.4,4.72,24.8,9.44,37.2,14.16,21.44,9.04,42.88,18.08,64.32,27.12,12,5.2,24,10.4,36,15.6,3.63,1.51,8.99,5.75,14.16,4.8,4.08-1.52,8.16-3.04,12.24-4.56l-.96,1.2c-3.63,1.72-6.21,4.39-11.04,5.28-5.71,1.05-10.47-2.94-14.16-4.56-9.44-4.08-18.88-8.16-28.32-12.24-37.07-15.56-74.43-30.92-111.84-46.8-10.96-4.08-21.92-8.16-32.88-12.24-6.21-2.52-13.7-3.95-18-8.4.08-.64.16-1.28.24-1.92,2.67-1.88,6.24-2.81,9.12-4.8,8.34-5.77,7.58-16.19,4.08-25.68Z"/>
  <path class="cls-1" d="M497.76,221.52c-4.78,3.74-11.47,5.92-15.6,10.32,2.41-.81,15.01-8.98,15.6-10.32Z"/>
  <path class="cls-1" d="M50.88,222c14.75,6.75,31.03,11.19,46.8,16.8,30.62,10.9,61.28,22.93,91.2,34.8,12.9,5.12,26.5,9.4,37.92,16.08,4.02,2.35,9.75,4.63,11.76,8.88-14.17-7.53-30.22-12.7-46.08-18.96-14.32-5.52-28.64-11.04-42.96-16.56-26.48-10.08-52.96-20.16-79.44-30.24v.24l.72.48c-4.16-1.28-8.32-2.56-12.48-3.84l.24.48c6.08,2.16,12.16,4.32,18.24,6.48-.56-.4-1.12-.8-1.68-1.2,43.04,16.64,86.08,33.28,129.12,49.92,12.69,5.01,36.25,8.87,38.64,23.28h-.24v-.48c-7.5-6.1-17.02-8.05-26.88-12.24-11.58-4.91-23.42-11.86-36-15.36v.24c9.12,4,18.24,8,27.36,12,3.04,1.44,6.08,2.88,9.12,4.32-.96-.24-1.92-.48-2.88-.72v.24c10.85,1.76,20.34,7.92,28.32,12.72-.56-.72-1.12-1.44-1.68-2.16-1.68-1.04-3.36-2.08-5.04-3.12-3.6-1.52-7.2-3.04-10.8-4.56,5.35.33,17.34,6.16,18.96,10.08,1.04,2.51-.07,7-.72,8.88l-.48-.48c-1.05-.65-.62-1.7-1.44-2.4-6.32-2.64-12.64-5.28-18.96-7.92v.24c6.08,2.64,12.16,5.28,18.24,7.92v.48c-5.1.19-7.62-.36-11.52-1.68v.48c5.01,1.25,5.85,2.42,12,1.44.49.98.7,1.61.96,2.4l.96-.48c-.29,3.31-1.9,4.43-3.6,6.24-9.08-1.49-18.43-7.26-26.88-11.04-18-8.06-35.84-15.28-53.28-24-6.55-3.28-18.36-10.32-25.44-11.76v.24h.48c8.32,4,16.64,8,24.96,12,19.7,9.78,40.37,18.78,60.48,28.32,5.84,2.77,12.17,3.84,18,6.96l-.48.72-.48.24c-6.46.18-11.57-3.43-16.56-5.28-13.94-5.16-27.05-11.25-40.32-17.04-31.9-13.92-65.5-25.75-97.92-39.36-9.76-3.68-19.52-7.36-29.28-11.04,3.31-.93,26.06,8.33,29.76,10.08-4.01-3.65-17.15-7.66-23.04-9.36-2-.56-4-1.12-6-1.68l.24-.48c1.28.4,2.56.8,3.84,1.2-1.2-.56-2.4-1.12-3.6-1.68l.48-.48c2.48,1.04,4.96,2.08,7.44,3.12-1.79-1.27-6.53-2.05-7.44-4.08,10,3.92,20,7.84,30,11.76,12.91,5.44,27.34,8.64,39.6,14.64-4.45-4.28-12.7-5.57-18.96-7.92-11.04-4.16-22.08-8.32-33.12-12.48-5.2-2.01-10.94-2.73-15.12-5.76,4.08,1.36,8.16,2.72,12.24,4.08-4.56-1.68-9.12-3.36-13.68-5.04.08-.72.16-1.44.24-2.16h.24c2.64,1.12,5.28,2.24,7.92,3.36-2.64-1.2-5.28-2.4-7.92-3.6.7-5.03,1.09-9.94.48-14.16,1.92.8,3.84,1.6,5.76,2.4l-.24-.72c-1.92-.88-3.84-1.76-5.76-2.64l.24-.72c10.32,3.52,20.64,7.04,30.96,10.56-5.79-4.17-23.16-8.8-31.2-10.8l-.24-.96h.24c.8.24,1.6.48,2.4.72l-.48-.24c-1.12-.62-1.96-.58-2.64-1.68,1.2.4,2.4.8,3.6,1.2-1.36-1.13-3.24-1.18-4.08-2.88,4.4,1.44,8.8,2.88,13.2,4.32-3.4-2.27-11.34-2.21-13.68-5.52,3.28.88,6.56,1.76,9.84,2.64l-.48-.24c-2.77-1.33-8.13-1.44-9.84-3.84,2.88.88,5.76,1.76,8.64,2.64-2.94-2.1-9.1-1.98-10.8-5.28Z"/>
  <path class="cls-1" d="M501.84,222c-1.92,1.2-3.84,2.4-5.76,3.6,2.16-1.2,4.32-2.4,6.48-3.6h-.72Z"/>
  <path class="cls-1" d="M482.64,222.24c-1.28,1.12-2.56,2.24-3.84,3.36h.24c.81-.5,4.39-3.09,3.6-3.36Z"/>
  <path class="cls-1" d="M503.76,223.2c.08,1.04.16,2.08.24,3.12-7.04,4.32-14.08,8.64-21.12,12.96,1.68-4.74,17.71-9.73,20.88-14.4h-.24c-3.43,1.82-19.16,13-20.88,12.96l.72-.96c6.8-4.56,13.6-9.12,20.4-13.68Z"/>
  <path class="cls-1" d="M482.88,223.68c-1.2,1.04-2.4,2.08-3.6,3.12.86-.25,4.33-2.54,3.6-3.12Z"/>
  <path class="cls-1" d="M428.16,223.92l-.96.72c.56-.24,1.12-.48,1.68-.72h-.72Z"/>
  <path class="cls-1" d="M503.28,227.76c-1.12.88-2.24,1.76-3.36,2.64.84-.36,4.23-2.35,3.36-2.64Z"/>
  <path class="cls-1" d="M64.8,228.72l.96.48-.96-.48Z"/>
  <path class="cls-1" d="M58.08,230.88c.64.24,1.28.48,1.92.72-.64-.24-1.28-.48-1.92-.72Z"/>
  <path class="cls-1" d="M70.56,231.6l.96.48-.96-.48Z"/>
  <path class="cls-1" d="M499.68,232.32l-.72.72c.87-.52.79-.29.72-.72Z"/>
  <path class="cls-1" d="M498.48,233.04c-8.96,5.76-17.92,11.52-26.88,17.28-3.68,2.08-7.36,4.16-11.04,6.24,10.09-3.95,19.5-10.92,28.08-16.8,3.12-2,6.24-4,9.36-6l.48-.72Z"/>
  <path class="cls-1" d="M71.28,233.76l1.44.72-1.44-.72Z"/>
  <path class="cls-1" d="M503.52,234.72c-4.4,2.88-8.8,5.76-13.2,8.64-3.34,1.97-7.79,3-10.08,6,3.82-2.37,22.38-12.32,23.28-14.64Z"/>
  <path class="cls-1" d="M61.68,234.96c.07.57-.05.3.24.96,8.24,2.72,16.48,5.44,24.72,8.16-6.53-4.88-19.23-5.04-24.96-9.12Z"/>
  <path class="cls-1" d="M73.92,234.96l1.2.24v.24l-1.2-.48Z"/>
  <path class="cls-1" d="M407.76,234.96c-1.52.88-3.04,1.76-4.56,2.64,1.32-.32,4.9-2.66,4.56-2.64Z"/>
  <path class="cls-1" d="M56.4,235.2c.07.57-.05.3.24.96,2.32.88,4.64,1.76,6.96,2.64v-.24l-.72-.48c9.18,2.66,18.47,6.52,27.84,9.84,2.68.95,7.78,3.94,10.56,3.36-14.96-5.36-29.92-10.72-44.88-16.08Z"/>
  <path class="cls-1" d="M58.08,236.88c.64.95.33,1.14,1.68,1.44-.56-.48-1.12-.96-1.68-1.44Z"/>
  <path class="cls-1" d="M345.84,237.6c8.4.32,15.46,26.74,7.44,32.88h-.72c2-10.99.75-26.19-8.4-30.72l-.96.48c5.61,1.12,15.2,26.4,7.2,31.44-.48.38-.33.31-1.2.48v-.72c4.6-12.14-1.92-24.96-6.96-31.44l.48-.72c1.04-.56,2.08-1.12,3.12-1.68Z"/>
  <path class="cls-1" d="M493.68,237.6c-2.48,2.57-6.24,3.82-9.36,5.76-7.73,4.8-15.51,8.93-23.76,13.68-8.38,4.83-16.01,11.28-24.24,15.84-21.13,11.72-42.09,24.23-61.92,37.2-8.61,5.63-17.98,8.29-24.96,15.84,5.52-3.84,11.04-7.68,16.56-11.52.63.86,5.59-2.25,7.2-3.12,6.92-3.74,13.21-8.78,20.16-12.96,14.8-8.89,29.45-16.73,44.16-25.68,4.08-2.96,8.16-5.92,12.24-8.88,6.56-3.52,13.12-7.04,19.68-10.56,6.4-3.92,12.8-7.84,19.2-11.76,1.22-.78,5.46-2.46,5.04-3.84Z"/>
  <path class="cls-1" d="M503.52,237.84c-.56.48-1.12.96-1.68,1.44.72-.31,2.07-.71,1.68-1.44Z"/>
  <path class="cls-1" d="M60,238.32c.88.32,1.76.64,2.64.96-.88-.32-1.76-.64-2.64-.96Z"/>
  <path class="cls-1" d="M56.4,238.56c1.4,1.02,14.96,5.93,15.84,5.76-5.39-1.58-9.5-5.18-15.84-5.76Z"/>
  <path class="cls-1" d="M63.84,238.8l1.2.72-1.2-.72Z"/>
  <path class="cls-1" d="M503.28,239.04c-.63.68-1.05.95-2.16,1.2l.48-.96c-4.8,2.61-11.98,6.08-15.6,10.08,2.4-.97,17.28-10.32,17.28-10.32Z"/>
  <path class="cls-1" d="M56.64,240c.71.75,2.56,1.57,3.6,1.2-1.2-.4-2.4-.8-3.6-1.2Z"/>
  <path class="cls-1" d="M340.56,240.72c7.42,2.74,14.12,29.29,4.08,34.32,1.95-14.88,2.01-25.14-7.68-32.88v-.24c1.2-.4,2.4-.8,3.6-1.2Z"/>
  <path class="cls-1" d="M56.64,241.44c.34.64.13.21.72,0h-.72Z"/>
  <path class="cls-1" d="M57.6,241.68c5.07,3.35,12.64,4.27,18.72,6.24,10.16,3.84,20.32,7.68,30.48,11.52-3.19-3.13-9.46-4.26-13.92-6-7.07-2.76-14.45-4.76-22.08-7.44-4.25-1.49-8.27-3.59-13.2-4.32Z"/>
  <path class="cls-1" d="M86.64,241.92l1.44.72-1.44-.72Z"/>
  <path class="cls-1" d="M56.64,243.12c2.01,2.8,11.49,4.44,15.84,6.24,13.04,5.52,26.08,11.04,39.12,16.56-4.54-4.41-12.63-6.12-18.96-8.64-11.67-4.64-23.34-10.86-36-14.16Z"/>
  <path class="cls-1" d="M478.8,243.6l-.72.72.72-.72Z"/>
  <path class="cls-1" d="M496.56,243.84c-.72.48-1.44.96-2.16,1.44.72-.48,1.44-.96,2.16-1.44Z"/>
  <path class="cls-1" d="M332.4,244.08c10.04-.1,13.55,17.19,9.84,27.36-2.59,7.09-20.18,13.67-26.64,18.24,2.41-12.4.18-26.68-7.44-32.64l.48-.72c6.21-2.41,16.04-11.39,23.52-10.32-.56-.32-1.12-.64-1.68-.96.64-.32,1.28-.64,1.92-.96Z"/>
  <path class="cls-1" d="M56.16,244.56c1.05,1.02,3.2,1.51,4.8,1.92-1.6-.64-3.2-1.28-4.8-1.92Z"/>
  <path class="cls-1" d="M477.12,244.56l-.48.24v.24l.48-.48Z"/>
  <path class="cls-1" d="M317.28,244.8h.72v.24c-.76,0-.34.03-.72-.24Z"/>
  <path class="cls-1" d="M493.92,245.28l-1.44.96,1.44-.96Z"/>
  <path class="cls-1" d="M503.28,245.76c-11.92,6.96-23.84,13.92-35.76,20.88,8.16-4.64,16.32-9.28,24.48-13.92,3.42-1.75,9.9-3.71,11.76-6.96h-.48Z"/>
  <path class="cls-1" d="M332.4,246c2.47,3.3,4.65,6.2,6,10.8h.48c-.73-4.09-3.32-9.02-6.48-10.8Z"/>
  <path class="cls-1" d="M55.68,246.24c3.85,3.63,12.81,4.21,18,6.24,4.08,1.84,8.16,3.68,12.24,5.52-6.38-4.76-21.4-10.03-30.24-11.76Z"/>
  <path class="cls-1" d="M61.2,246.48c.72.4,1.44.8,2.16,1.2-.72-.4-1.44-.8-2.16-1.2Z"/>
  <path class="cls-1" d="M491.04,247.2c-1.44.96-2.88,1.92-4.32,2.88,1.44-.96,2.88-1.92,4.32-2.88Z"/>
  <path class="cls-1" d="M54.96,248.4c1.23,1.57,24.24,9.58,27.84,10.56-5.59-3.82-20.64-8.57-27.84-10.56Z"/>
  <path class="cls-1" d="M469.68,248.88l-.24.48.48-.48h-.24Z"/>
  <path class="cls-1" d="M479.52,249.6c-2.24,1.52-4.48,3.04-6.72,4.56,1.78-.78,6.98-3.52,6.72-4.56Z"/>
  <path class="cls-1" d="M485.76,249.6c-8.04,6.66-19.18,10.94-28.8,15.84-2.16,1.04-4.32,2.08-6.48,3.12,9.16-3.89,18.91-8.17,26.88-13.44,2.72-1.68,5.44-3.36,8.16-5.04l.24-.48Z"/>
  <path class="cls-1" d="M467.04,250.32l-.72.72.72-.72Z"/>
  <path class="cls-1" d="M63.12,250.8c.56.24,1.12.48,1.68.72-.56-.24-1.12-.48-1.68-.72Z"/>
  <path class="cls-1" d="M101.52,251.52c.55.37.29.44.96.24l-.96-.24Z"/>
  <path class="cls-1" d="M463.44,252.48l-.72.72.72-.72Z"/>
  <path class="cls-1" d="M114,256.32l.72.48-.72-.48Z"/>
  <path class="cls-1" d="M460.08,256.56c-7.92,4.64-15.84,9.28-23.76,13.92-5.33,2.96-11.24,4.77-15.36,8.88,2.72-1.76,5.44-3.52,8.16-5.28,4-1.92,8-3.84,12-5.76,2.96-2,5.92-4,8.88-6,1.75-1.08,11.42-5.34,10.08-5.76Z"/>
  <path class="cls-1" d="M338.88,257.28c.16.72.32,1.44.48,2.16l.24-.24c-.24-.64-.48-1.28-.72-1.92Z"/>
  <path class="cls-1" d="M461.52,258c-2.08,1.36-4.16,2.72-6.24,4.08,1.63-.72,6.39-3.27,6.24-4.08Z"/>
  <path class="cls-1" d="M119.76,258.72l.72.48-.72-.48Z"/>
  <path class="cls-1" d="M303.84,258.72c.56.08,1.12.16,1.68.24,6.55,2.68,13.6,27.08,5.28,33.36h-.72c2.47-14.17-1.23-24.69-8.4-32.4.72-.4,1.44-.8,2.16-1.2Z"/>
  <path class="cls-1" d="M83.04,258.96c.58.35.57.4,1.2.24l-1.2-.24Z"/>
  <path class="cls-1" d="M453.6,258.96l-.24.48c.36-.4.38.04.24-.48Z"/>
  <path class="cls-1" d="M461.28,259.2l-.48.72.72-.72h-.24Z"/>
  <path class="cls-1" d="M84.48,259.44c.72.32,1.44.64,2.16.96-.72-.32-1.44-.64-2.16-.96Z"/>
  <path class="cls-1" d="M475.68,259.44l-.24.48c.36-.4.38.04.24-.48Z"/>
  <path class="cls-1" d="M122.4,259.68c.55.37.29.44.96.24l-.96-.24Z"/>
  <path class="cls-1" d="M451.92,259.68c-.08.16-.16.32-.24.48.36-.4.38.04.24-.48Z"/>
  <path class="cls-1" d="M460.32,259.92c-.8.56-1.6,1.12-2.4,1.68.5-.22,2.9-1.48,2.4-1.68Z"/>
  <path class="cls-1" d="M123.6,260.16l.48.48-.48-.48Z"/>
  <path class="cls-1" d="M474.48,260.16l-.48.24v.24l.48-.48Z"/>
  <path class="cls-1" d="M124.56,260.4c1.99,2.47,7.95,3.53,11.04,4.8,8.96,3.6,17.92,7.2,26.88,10.8l-.24-.48c-12.56-5.04-25.12-10.08-37.68-15.12Z"/>
  <path class="cls-1" d="M300.48,260.4h.72c2.81,1.79,5.16,5.43,6.48,8.64,2.55,6.19,5.08,24.43-2.64,26.64,5.74-12.24-.32-27-6-34.32l1.44-.96Z"/>
  <path class="cls-1" d="M473.28,260.4c-9.18,7.75-22.12,12.27-32.88,18.24-9.28,5.76-18.56,11.52-27.84,17.28-5.84,3.01-12.79,3.89-17.04,8.4,2.56-1.52,5.12-3.04,7.68-4.56,3.44-1.28,6.88-2.56,10.32-3.84,12.84-7.83,25.49-16.5,39.36-23.28,5.7-2.79,10.55-5.37,15.84-8.64.74-.46,4.84-3.51,4.56-3.6Z"/>
  <path class="cls-1" d="M454.8,261.6c-2.96,1.84-5.92,3.68-8.88,5.52v.24c2.31-.52,8.31-4.24,8.88-5.76Z"/>
  <path class="cls-1" d="M478.56,261.6c-1.12.72-2.24,1.44-3.36,2.16.74-.25,3.64-2.06,3.36-2.16Z"/>
  <path class="cls-1" d="M454.8,262.8l-.72.72c.87-.52.79-.29.72-.72Z"/>
  <path class="cls-1" d="M295.2,263.28c10.7.66,13.06,34.85,2.4,37.2l2.64-7.92c2.43-12.12-2.41-21.65-7.44-27.84l.24-.48c.72-.32,1.44-.64,2.16-.96Z"/>
  <path class="cls-1" d="M474.48,263.76l-11.52,5.76c-6.22,3.64-13.49,6.17-19.92,9.84-3.2,1.92-6.4,3.84-9.6,5.76,1.12-.88,2.24-1.76,3.36-2.64-2.86,1-6.18,3.76-7.92,6,10.3-6.15,22.1-11.21,32.64-17.52,1.79-1.07,15.71-7.66,12.96-7.2Z"/>
  <path class="cls-1" d="M503.52,264.24c-3.6,2.16-7.2,4.32-10.8,6.48-8.78,5.5-17.4,11.48-26.88,16.32-4.74,2.42-14.84,6.38-18,10.08,4.64-2.56,9.28-5.12,13.92-7.68,9.4-5.41,18.54-10.3,27.36-15.84,4.48-2.72,8.96-5.44,13.44-8.16l.96-1.2Z"/>
  <path class="cls-1" d="M451.2,264.96l-.48.72c.65-.58.63-.23.48-.72Z"/>
  <path class="cls-1" d="M460.32,265.68c-4.16,3.11-10.01,4.97-15.12,6.96-6,3.36-12,6.72-18,10.08-3.52,1.6-7.04,3.2-10.56,4.8,9.76-2.5,17.65-8.97,25.92-13.2,6.12-3.13,13.34-4.55,18.48-8.64h-.72Z"/>
  <path class="cls-1" d="M449.76,265.92c-8.24,4.8-16.48,9.6-24.72,14.4,5.09-1.27,21.7-11.05,25.44-14.4h-.72Z"/>
  <path class="cls-1" d="M465.6,266.16l-.72.72.72-.72Z"/>
  <path class="cls-1" d="M288.96,266.64l1.44.24c7.24,3.02,9.35,19.92,6,29.04-1.92,5.22-22.58,17.57-28.56,18.96.16-.72.32-1.44.48-2.16,4.57-2.44,23-10.99,25.2-14.16-9.19,2.84-16.73,9.8-25.44,12.96.26-12.33-2.7-23.89-8.88-30v-.24c9.92-4.88,19.84-9.76,29.76-14.64Z"/>
  <path class="cls-1" d="M439.68,266.88l-.24.48c.36-.4.38.04.24-.48Z"/>
  <path class="cls-1" d="M464.4,266.88c-.72.48-1.44.96-2.16,1.44.72-.48,1.44-.96,2.16-1.44Z"/>
  <path class="cls-1" d="M466.56,266.88l-.24.48.48-.48h-.24Z"/>
  <path class="cls-1" d="M460.08,267.12c-1.36.8-2.72,1.6-4.08,2.4l4.8-2.4h-.72Z"/>
  <path class="cls-1" d="M438.96,267.36c-2.88,1.68-5.76,3.36-8.64,5.04,1.33-.6,9.88-4.62,8.64-5.04Z"/>
  <path class="cls-1" d="M338.88,268.08c-5.84,3.2-11.68,6.4-17.52,9.6v.48h.96c5.76-3.2,11.52-6.4,17.28-9.6l-.72-.48Z"/>
  <path class="cls-1" d="M287.04,268.32c1.96,2.74,3.6,7.37,6,9.84-1.02-3.26-3.12-8.43-6-9.84Z"/>
  <path class="cls-1" d="M503.28,269.28c-1.28.96-2.56,1.92-3.84,2.88,1.49-.49,3.99-2.27,3.84-2.88Z"/>
  <path class="cls-1" d="M455.52,269.52l-1.2.48v.24c.43-.08,1.92-.5,1.2-.72Z"/>
  <path class="cls-1" d="M439.2,269.76c-2.88,1.44-5.76,2.88-8.64,4.32-4.32,2.8-8.64,5.6-12.96,8.4-7.04,3.6-14.08,7.2-21.12,10.8-17.57,10.59-35.05,21.48-52.08,32.16-8.8,5.28-17.6,10.56-26.4,15.84,4.48-2.56,8.96-5.12,13.44-7.68,9.63-5.94,19.07-11.91,28.08-18.24,3.76-2,7.52-4,11.28-6,10.94-6.64,21.88-13.41,33.6-19.44,8.87-4.56,17.04-10.23,25.44-14.88,1.6-.89,10.87-4.95,9.36-5.28Z"/>
  <path class="cls-1" d="M340.8,270.72c-3.67,3.43-22.56,11.31-23.76,14.64h.96c3.32-1.68,22.55-12.83,22.8-14.64Z"/>
  <path class="cls-1" d="M452.64,270.72l.72.24-.72-.24Z"/>
  <path class="cls-1" d="M138,270.96c11.36,5.04,22.72,10.08,34.08,15.12-3.72-3.74-27.71-13.55-34.08-15.12Z"/>
  <path class="cls-1" d="M127.92,271.2l1.44.72-1.44-.72Z"/>
  <path class="cls-1" d="M129.6,271.68c.51.63.72.7,1.44.48l-1.44-.48Z"/>
  <path class="cls-1" d="M450.72,271.68l-.24.48c.36-.4.38.04.24-.48Z"/>
  <path class="cls-1" d="M498.72,272.16c-2.39,1.98-5.92,3.79-9.12,4.8v.48h.24c2.01-1.05,9.12-3.9,8.88-5.28Z"/>
  <path class="cls-1" d="M449.28,272.4l-.24.48.48-.48h-.24Z"/>
  <path class="cls-1" d="M131.28,272.64c8.48,3.76,16.96,7.52,25.44,11.28,17.05,7.51,34.56,15.87,50.4,25.2,8.17,4.81,21.05,14.38,32.4,14.16l-.24-.48c-13.55-.47-24.41-9.8-33.84-15.36-15.66-9.22-32.81-17.05-49.92-24.48-8.08-3.44-16.16-6.88-24.24-10.32Z"/>
  <path class="cls-1" d="M448.32,272.88c-3.92,2.45-9.33,3.71-12.48,6.96v.24h.24c1.77-1.21,12.25-7,12.24-7.2Z"/>
  <path class="cls-1" d="M494.88,276.24c-.8.56-1.6,1.12-2.4,1.68.84-.22,3.14-1.43,2.4-1.68Z"/>
  <path class="cls-1" d="M489.12,277.2l-.48.24v.24l.48-.48Z"/>
  <path class="cls-1" d="M486.96,278.16c-3.31,2.96-8.09,4.11-12,6.48-4.48,2.96-8.96,5.92-13.44,8.88-2.88,1.68-5.76,3.36-8.64,5.04,9.14-3.31,16.51-10.49,24.96-14.88,1.62-.84,10.16-5.14,9.12-5.52Z"/>
  <path class="cls-1" d="M491.52,278.16c-8.48,5.12-16.96,10.24-25.44,15.36-2.64,1.44-5.28,2.88-7.92,4.32,9.35-3.87,18.21-9.6,26.16-15.12,2.07-1.43,6.38-2.75,7.2-4.56Z"/>
  <path class="cls-1" d="M293.04,278.64c.3.73,0,.29.48.72l-.48-.72Z"/>
  <path class="cls-1" d="M496.56,279.36c-10.19,7.99-22.51,13.37-33.84,20.16-2.48,1.84-4.96,3.68-7.44,5.52-4.24,2.68-10.03,5.34-13.2,9.12.64-.32,1.28-.64,1.92-.96l-.72.96c13.01-8.69,26.3-17.38,39.84-25.92,4.16-2.64,8.32-5.28,12.48-7.92l.96-.96Z"/>
  <path class="cls-1" d="M420,279.6l-.24.48.48-.48h-.24Z"/>
  <path class="cls-1" d="M419.28,280.08c-.56.4-1.12.8-1.68,1.2.56-.4,1.12-.8,1.68-1.2Z"/>
  <path class="cls-1" d="M434.16,280.08l-.48.24v.24c.59-.33.59.03.48-.48Z"/>
  <path class="cls-1" d="M434.4,281.04c-1.62,1.59-3.93,1.66-6,2.88-3.44,2.4-6.88,4.8-10.32,7.2-4.8,3.08-10.14,4.84-15.6,7.2-3.68,2.48-7.36,4.96-11.04,7.44-7.75,4.62-16.76,8.19-24.24,12.72-6.87,4.17-16.35,6.72-21.36,12.72,9.44-5.48,19.26-11.49,28.8-17.04,5.6-2.56,11.2-5.12,16.8-7.68,2.8-2.16,5.6-4.32,8.4-6.48,2.95-1.97,9.09-4.13,12.24-5.52,6.11-2.7,10.65-6.82,16.08-9.84,1.83-1.02,6.47-2.2,6.24-3.6Z"/>
  <path class="cls-1" d="M417.12,281.28c-3.04,1.76-6.08,3.52-9.12,5.28,3.04-1.76,6.08-3.52,9.12-5.28Z"/>
  <path class="cls-1" d="M256.08,282.72c2.32,1.16,4.22,3.13,5.52,5.28,2.93,4.84,8.6,27.29.96,31.2h-.24c.17-3.9,1.48-7.94.72-12.48-1.3-7.77-4.62-18.84-11.52-20.88l.24.48c6.66,2.99,16.59,32.57,4.56,36v-.24c3.97-11.16-3.06-29.73-10.32-33.12,5.36,6.95,12.93,15.97,9.6,29.28-.95,3.81-1.21,6.07-5.04,6.96v-.24c4.79-9.2,1.84-22.59-2.64-29.76-1.76-2.24-3.52-4.48-5.28-6.72,4.65-.92,9.77-3.37,13.44-5.76Z"/>
  <path class="cls-1" d="M445.2,282.96c-3.23,2.21-8.31,2.83-10.8,5.76,3.6-1.92,7.2-3.84,10.8-5.76Z"/>
  <path class="cls-1" d="M425.52,284.64c-4.97,3.86-11.71,6.21-17.76,8.88-6.61,2.91-12.28,7.3-18.24,10.8-4.56,2.08-9.12,4.16-13.68,6.24-15.33,9.29-30.17,19.71-45.12,29.04-5.28,3.12-10.56,6.24-15.84,9.36-3.04,1.52-6.08,3.04-9.12,4.56,15.44-5.69,26.88-15.99,39.84-24,16.84-10.41,34.91-20.05,52.08-30.24,7.04-3.44,14.08-6.88,21.12-10.32,1.87-.95,6.79-3.18,6.72-4.32Z"/>
  <path class="cls-1" d="M496.32,284.64c-7.2,4.16-14.4,8.32-21.6,12.48v.24c3.83-.45,19.65-10.23,22.32-12.72h-.72Z"/>
  <path class="cls-1" d="M435.12,285.36l-.24.48c.36-.4.38.04.24-.48Z"/>
  <path class="cls-1" d="M198,285.6c4.24,1.6,8.48,3.2,12.72,4.8,10.94,4.31,22.79,8.04,30.72,15.36-3.74-7.21-33.41-17.73-43.44-20.16Z"/>
  <path class="cls-1" d="M178.56,285.84c8.56,3.76,17.12,7.52,25.68,11.28l-.24-.48c-8.69-2.67-16.03-9.09-25.44-10.8Z"/>
  <path class="cls-1" d="M434.4,285.84c-5.44,3.52-10.88,7.04-16.32,10.56,3.46-1.59,15.25-8.16,16.32-10.56Z"/>
  <path class="cls-1" d="M453.36,286.08c-6.56,3.44-13.12,6.88-19.68,10.32-19.63,11.95-41.1,23.3-60.72,35.04-6.12,3.66-11.76,7.36-17.52,11.04-2,1.28-4,2.56-6,3.84,5.57-2.19,10.47-6.32,15.12-9.6,4.71-3.32,10.21-6.02,14.88-9.12,16.48-9.2,32.96-18.4,49.44-27.6,6.32-3.6,12.64-7.2,18.96-10.8,1.65-.9,5.61-2.11,5.52-3.12Z"/>
  <path class="cls-1" d="M430.32,286.32c-5.33,4.02-14.09,9.75-20.4,12.24-3.12,1.2-6.24,2.4-9.36,3.6-2.96,1.92-5.92,3.84-8.88,5.76-9.03,5.36-18.73,9.69-27.12,15.36-4.87,3.29-10.9,6.16-14.64,10.56,6.24-4.4,12.48-8.8,18.72-13.2,1.83-1.25,12.64-7.11,13.44-6.72,8.58-4.64,16.2-10.01,25.44-14.16,6.34-2.85,11.69-5.46,17.52-8.88,1.05-.61,5.28-4.56,5.28-4.56Z"/>
  <path class="cls-1" d="M428.4,288.48l-.24.48.48-.48h-.24Z"/>
  <path class="cls-1" d="M433.92,288.72l-.96.96.96-.96Z"/>
  <path class="cls-1" d="M186.72,292.32c2.27,1.92,17.74,10.1,20.4,9.6-6.8-3.2-13.6-6.4-20.4-9.6Z"/>
  <path class="cls-1" d="M400.08,292.8c-1.68,1.04-3.36,2.08-5.04,3.12,1.68-1.04,3.36-2.08,5.04-3.12Z"/>
  <path class="cls-1" d="M403.92,293.52c-5.2,3.86-15.12,5.21-18.72,10.56,2.4-1.24,18.72-10.45,18.72-10.56Z"/>
  <path class="cls-1" d="M294,293.76c-3.41,2.33-9.08,2.94-11.76,6,3.6-.66,10.44-3.45,12.48-6h-.72Z"/>
  <path class="cls-1" d="M394.56,295.92l-.24.48.48-.48h-.24Z"/>
  <path class="cls-1" d="M447.12,296.16c-4.56,3.81-10.94,5.92-14.64,10.56,2.11-.85,14.67-10.45,14.64-10.56Z"/>
  <path class="cls-1" d="M393.84,296.4c-1.92,1.2-3.84,2.4-5.76,3.6,1.03-.45,5.99-3.52,5.76-3.6Z"/>
  <path class="cls-1" d="M205.92,297.6c7.51,5.15,23.66,8.61,32.88,12.24-2.5-2.79-27.52-10.75-32.88-12.24Z"/>
  <path class="cls-1" d="M447.12,297.6l-.24.48.48-.48h-.24Z"/>
  <path class="cls-1" d="M455.52,298.08c-.96.64-1.92,1.28-2.88,1.92,1.5-.39,3.33-1.48,2.88-1.92Z"/>
  <path class="cls-1" d="M451.92,298.32l-.72.72.72-.72Z"/>
  <path class="cls-1" d="M206.16,298.8l.72.48-.72-.48Z"/>
  <path class="cls-1" d="M207.12,299.28l.72.48-.72-.48Z"/>
  <path class="cls-1" d="M444,299.52l-.24.48.48-.48h-.24Z"/>
  <path class="cls-1" d="M208.08,299.76c1.04.56,2.08,1.12,3.12,1.68-1.04-.56-2.08-1.12-3.12-1.68Z"/>
  <path class="cls-1" d="M449.52,299.76l-.72.48v.24c.91-.45.82-.3.72-.72Z"/>
  <path class="cls-1" d="M387.36,300c-6.32,4-12.64,8-18.96,12-3.21,1.68-7.87,2.58-10.08,5.28,7.21-3.61,14.12-7.77,20.64-11.76,1.52-.93,9.54-5.69,8.4-5.52Z"/>
  <path class="cls-1" d="M451.44,300c-6.73,6.92-16.24,11.67-24.24,17.28-3.74,2.63-7.54,6.12-12,7.92v.24c6.17-1.09,21.55-13.82,26.88-17.76,1.8-1.33,10.18-7.63,9.36-7.68Z"/>
  <path class="cls-1" d="M444.72,300.24c-3.76,2.32-7.52,4.64-11.28,6.96,3.68-2.08,7.36-4.16,11.04-6.24l.24-.72Z"/>
  <path class="cls-1" d="M452.64,300.24c-2.56,2-5.12,4-7.68,6,1.69-1,7.82-5.12,7.68-6Z"/>
  <path class="cls-1" d="M435.84,300.48c-4.8,2.96-9.6,5.92-14.4,8.88,4.51-.82,10.05-5.12,13.44-7.68l.96-1.2Z"/>
  <path class="cls-1" d="M438,300.96c-8.56,5.52-17.12,11.04-25.68,16.56,6.48-3.92,12.96-7.84,19.44-11.76.97-.6,6.38-4.74,6.24-4.8Z"/>
  <path class="cls-1" d="M391.68,301.2c-1.52.96-3.04,1.92-4.56,2.88,1.07-.44,5.19-2.67,4.56-2.88Z"/>
  <path class="cls-1" d="M211.44,301.44l.72.48-.72-.48Z"/>
  <path class="cls-1" d="M212.4,301.92c2.83,2.84,23.64,12.58,28.56,8.64l.24-.24-.24-.96c-10.44,4.47-20-4.58-28.56-7.44Z"/>
  <path class="cls-1" d="M207.6,302.4l1.44.72-1.44-.72Z"/>
  <path class="cls-1" d="M402.96,302.88c-2.56,1.44-5.12,2.88-7.68,4.32,1.81-.8,7.76-3.39,7.68-4.32Z"/>
  <path class="cls-1" d="M386.64,304.08l-.72.72.72-.72Z"/>
  <path class="cls-1" d="M383.04,305.52c-1.6,1.12-3.2,2.24-4.8,3.36.84-.37,5.18-3.08,4.8-3.36Z"/>
  <path class="cls-1" d="M432,306.96c-4.32,2.8-8.64,5.6-12.96,8.4-7.53,4.74-15.27,10.06-22.32,15.36l-8.64,5.76c4.64-2.16,7.68-5.18,11.52-7.92,6.24-4.08,12.48-8.16,18.72-12.24,3.58-2.37,12.19-5.96,14.16-9.36h-.48Z"/>
  <path class="cls-1" d="M394.8,307.2l-.24.48.48-.48h-.24Z"/>
  <path class="cls-1" d="M215.76,309.36c2.42,2.5,20.33,12.25,24.24,11.52l.72-.72v-.24c-6.32,1.61-18.43-8.31-24.96-10.56Z"/>
  <path class="cls-1" d="M414.24,309.6l-.72.72.72-.72Z"/>
  <path class="cls-1" d="M379.68,310.08c-1.36.8-2.72,1.6-4.08,2.4.96-.26,4.26-2.34,4.08-2.4Z"/>
  <path class="cls-1" d="M413.04,310.32l-.24.48.48-.48h-.24Z"/>
  <path class="cls-1" d="M384.24,311.04l-.48.24v.24c.59-.33.59.03.48-.48Z"/>
  <path class="cls-1" d="M411.6,311.28c-17.84,10.88-35.68,21.76-53.52,32.64v.24c6.55-2.01,12.6-7.46,18-11.04,7.6-4.48,15.2-8.96,22.8-13.44,2.18-1.34,12.75-7.61,12.72-8.4Z"/>
  <path class="cls-1" d="M383.04,311.52l-.96.72c1.13-.4,1.04-.31.96-.72Z"/>
  <path class="cls-1" d="M223.92,312.24l.96.72-.96-.72Z"/>
  <path class="cls-1" d="M380.64,312.24c-6.88,3.76-13.76,7.52-20.64,11.28-9.6,6.48-19.2,12.96-28.8,19.44-5.6,3.12-11.2,6.24-16.8,9.36,13.31-4.08,23.45-14.21,34.32-21.12,7.36-4.56,14.72-9.12,22.08-13.68l10.56-5.28h-.72Z"/>
  <path class="cls-1" d="M225.12,312.96l1.2.72-1.2-.72Z"/>
  <path class="cls-1" d="M381.12,314.16l-1.68,1.68c.41-.25,2.63-1.67,1.68-1.68Z"/>
  <path class="cls-1" d="M441.6,314.16c-2.32,1.6-4.64,3.2-6.96,4.8v.24h.24c2.18-1.17,7.18-3.33,6.72-5.04Z"/>
  <path class="cls-1" d="M440.64,315.12h.72l-.96.72.24-.72Z"/>
  <path class="cls-1" d="M365.52,315.36l-.48.24v.24l.48-.48Z"/>
  <path class="cls-1" d="M420.72,315.6c-7.52,5.36-15.04,10.72-22.56,16.08,4.48-2.1,21.14-12.78,22.56-16.08Z"/>
  <path class="cls-1" d="M378.48,316.32l-7.92,5.28v.24c2.56-1.68,5.12-3.36,7.68-5.04l.24-.48Z"/>
  <path class="cls-1" d="M410.64,318c-11.44,7.44-22.88,14.88-34.32,22.32,9.16-4.23,16.65-10.7,24.72-16.08,3.2-2.08,6.4-4.16,9.6-6.24Z"/>
  <path class="cls-1" d="M360.72,318.48l-1.2.96c.95-.38,1.02-.49,1.2-.96Z"/>
  <path class="cls-1" d="M356.88,318.72c-11.6,10.56-27.06,18.41-40.8,26.64-5.28,2.72-10.56,5.44-15.84,8.16,4.08-.77,7.64-3.42,10.8-5.28,11.32-6.65,23-12.4,33.36-19.92,2.91-2.11,11.59-6.96,12.48-9.6Z"/>
  <path class="cls-1" d="M372.24,322.8c-2.03,1.51-4.56,2.24-6.24,4.08,2.08-1.36,4.16-2.72,6.24-4.08Z"/>
  <path class="cls-1" d="M372,324l-.24.48.48-.48h-.24Z"/>
  <path class="cls-1" d="M347.28,324.48c-4,2.72-8,5.44-12,8.16,2.06-1.06,12.04-7.65,12-8.16Z"/>
  <path class="cls-1" d="M406.32,325.2c-3.92,2.72-7.84,5.44-11.76,8.16,3.68-2.4,7.36-4.8,11.04-7.2l.72-.96Z"/>
  <path class="cls-1" d="M410.16,326.16l-.48.24v.24l.48-.48Z"/>
  <path class="cls-1" d="M365.52,326.88l-.96.96.96-.96Z"/>
  <path class="cls-1" d="M354.48,328.8c-2.64,1.84-5.28,3.68-7.92,5.52-5.95,4.24-11.91,9-18.24,12.96-2.48,1.36-4.96,2.72-7.44,4.08,8.98-2.24,18.82-11.46,25.68-16.56,2.56-1.76,5.12-3.52,7.68-5.28l.24-.72Z"/>
  <path class="cls-1" d="M345.36,331.2l-.24.48.48-.48h-.24Z"/>
  <path class="cls-1" d="M344.16,331.92l-.96.96.96-.96Z"/>
  <path class="cls-1" d="M334.8,332.64l-.24.48.48-.48h-.24Z"/>
  <path class="cls-1" d="M342.48,332.88l-.48.72c.7-.51.62-.17.48-.72Z"/>
  <path class="cls-1" d="M349.2,333.84c-1.6,1.28-3.2,2.56-4.8,3.84,1.43-.83,4.95-3.06,4.8-3.84Z"/>
  <path class="cls-1" d="M351.12,333.84l-.96.96.96-.96Z"/>
  <path class="cls-1" d="M339.84,334.56c-.56.48-1.12.96-1.68,1.44.56-.48,1.12-.96,1.68-1.44Z"/>
  <path class="cls-1" d="M349.68,334.8l-.24.48.48-.48h-.24Z"/>
  <path class="cls-1" d="M329.28,336l-.24.48.48-.48h-.24Z"/>
  <path class="cls-1" d="M328.56,336.48l-.48.24v.24l.48-.48Z"/>
  <path class="cls-1" d="M327.12,337.2l-.48.24v.24l.48-.48Z"/>
  <path class="cls-1" d="M250.8,341.04l.72.24-.72-.24Z"/>
  <path class="cls-1" d="M249.6,341.28l-.72.24v.24l1.44-.48h-.72Z"/>
  <path class="cls-1" d="M317.52,341.52c-2.16,1.28-4.32,2.56-6.48,3.84,1.43-.32,6.99-2.89,6.48-3.84Z"/>
  <path class="cls-1" d="M247.92,341.76l-1.2.48v.24c1.37-.22,1.8-.17,1.2-.72Z"/>
  <path class="cls-1" d="M261.36,342.24l-.72.24v.24c.64-.16,1.28-.32,1.92-.48h-1.2Z"/>
  <path class="cls-1" d="M255.84,342.48c-3.76,1.04-7.52,2.08-11.28,3.12,3.11,0,11.62-3.04,11.28-3.12Z"/>
  <path class="cls-1" d="M259.44,342.72c-3.6,1.28-7.2,2.56-10.8,3.84v.24c3.92-1.36,7.84-2.72,11.76-4.08h-.96Z"/>
  <path class="cls-1" d="M265.2,342.72l.72.24-.72-.24Z"/>
  <path class="cls-1" d="M244.56,342.96c-1.2.4-2.4.8-3.6,1.2v.24c1.75-.08,3.69-.92,3.6-1.44Z"/>
  <path class="cls-1" d="M264,342.96l.72.24-.72-.24Z"/>
  <path class="cls-1" d="M261.12,343.68l-.72.24v.24l1.44-.24-.72-.24Z"/>
  <path class="cls-1" d="M266.16,343.68c-3.76,1.28-7.52,2.56-11.28,3.84,3.76-1.28,7.52-2.56,11.28-3.84Z"/>
  <path class="cls-1" d="M315.12,344.4l-.48.24v.24l.48-.48Z"/>
  <path class="cls-1" d="M258.48,344.64c-2,.72-4,1.44-6,2.16,2.32-.72,4.64-1.44,6.96-2.16h-.96Z"/>
  <path class="cls-1" d="M266.64,344.88c-3.36,1.28-6.72,2.56-10.08,3.84h.72c1.93-.88,9.5-3.71,9.36-3.84Z"/>
  <path class="cls-1" d="M279.6,344.88l.72.24-.72-.24Z"/>
  <path class="cls-1" d="M314.16,344.88l-1.2.96,1.2-.96Z"/>
  <path class="cls-1" d="M271.92,345.12c-.8.24-1.6.48-2.4.72v.24c1.52-.13,2.96-.39,2.4-.96Z"/>
  <path class="cls-1" d="M284.4,345.36c-2.56.88-5.12,1.76-7.68,2.64v.24c1.93-.26,7.74-2.38,7.68-2.88Z"/>
  <path class="cls-1" d="M310.08,345.36l-.96.72c1.15-.35,1.57-.15.96-.72Z"/>
  <path class="cls-1" d="M275.04,345.6l-.48.24v.24c.59-.33.59.03.48-.48Z"/>
  <path class="cls-1" d="M276.96,345.6l-.48.24v.24c.61-.29.97,0,.48-.48Z"/>
  <path class="cls-1" d="M291.36,345.84l.72.24-.72-.24Z"/>
  <path class="cls-1" d="M268.56,346.08l-.24.48.96-.48h-.72Z"/>
  <path class="cls-1" d="M273.84,346.08c-3.6,1.2-7.2,2.4-10.8,3.6v.24c2.62-.3,11.62-3.73,10.8-3.84Z"/>
  <path class="cls-1" d="M289.92,346.08l-.72.24v.24c.64-.16,1.28-.32,1.92-.48h-1.2Z"/>
  <path class="cls-1" d="M295.2,346.08l-.72.24v.24l1.44-.24-.72-.24Z"/>
  <path class="cls-1" d="M299.52,346.08c-6.32,2.24-12.64,4.48-18.96,6.72,4.32-1.52,8.64-3.04,12.96-4.56,1.14-.42,6.18-2.12,6-2.16Z"/>
  <path class="cls-1" d="M308.4,346.08c-.64.32-1.28.64-1.92.96,1.37-.24,2.01-.51,1.92-.96Z"/>
  <path class="cls-1" d="M285.12,346.32l-.72.24v.24c.82-.27.86.02.72-.48Z"/>
  <path class="cls-1" d="M266.88,346.56v.48l1.2-.48h-1.2Z"/>
  <path class="cls-1" d="M287.76,346.56c-.96.48-1.92.96-2.88,1.44,1.36-.48,2.72-.96,4.08-1.44h-1.2Z"/>
  <path class="cls-1" d="M293.28,346.56c-4.24,1.44-8.48,2.88-12.72,4.32v.24h.24c4.48-1.52,8.96-3.04,13.44-4.56h-.96Z"/>
  <path class="cls-1" d="M310.32,346.56l-.96.72c1.13-.4,1.04-.31.96-.72Z"/>
  <path class="cls-1" d="M274.8,346.8l-.24.48c.36-.4.38.04.24-.48Z"/>
  <path class="cls-1" d="M265.68,347.04c-2,.88-4,1.76-6,2.64h.72c1.58-.65,4.73-1.71,5.28-2.64Z"/>
  <path class="cls-1" d="M302.88,347.04c-6.32,2.08-12.64,4.16-18.96,6.24v.48h.24c2.25-1.05,18.73-5.87,18.72-6.72Z"/>
  <path class="cls-1" d="M273.36,347.76l-.72.24v.24c.84-.2.62-.34.72-.48Z"/>
  <path class="cls-1" d="M283.92,347.76l-8.64,2.88v.24c2.1-.26,8.73-2.41,8.64-3.12Z"/>
  <path class="cls-1" d="M307.68,347.76l-.48.24v.24c.59-.33.59.03.48-.48Z"/>
  <path class="cls-1" d="M271.68,348.24c-.56.32-1.12.64-1.68.96.8-.32,1.6-.64,2.4-.96h-.72Z"/>
  <path class="cls-1" d="M275.76,348.24c-2.24.88-4.48,1.76-6.72,2.64v.24c2.48-.96,4.96-1.92,7.44-2.88h-.72Z"/>
  <path class="cls-1" d="M306.72,348.24l-1.2.96,1.2-.96Z"/>
  <path class="cls-1" d="M302.4,348.48c-4.72,1.76-9.44,3.52-14.16,5.28v.24h.24c4.75-1.49,10.85-2.76,14.64-5.52h-.72Z"/>
  <path class="cls-1" d="M268.8,349.2c-1.28.56-2.56,1.12-3.84,1.68,1.52-.56,3.04-1.12,4.56-1.68h-.72Z"/>
  <path class="cls-1" d="M304.56,349.44c-3.52,1.52-7.04,3.04-10.56,4.56h.72c2.43-.92,11.02-4.28,9.84-4.56Z"/>
  <path class="cls-1" d="M274.32,350.64c-.56.32-1.12.64-1.68.96v.24h.24c.72-.4,1.44-.8,2.16-1.2h-.72Z"/>
  <path class="cls-1" d="M279.36,350.88c-1.76.56-3.52,1.12-5.28,1.68,1.76-.12,5.16-.37,6.24-1.68h-.96Z"/>
  <path class="cls-1" d="M271.68,351.6l-.48.24.72.24.48-.48h-.72Z"/>
  <path class="cls-1" d="M279.84,352.56c-.64.32-1.28.64-1.92.96.7-.08,2.49-.38,1.92-.96Z"/>
  <path class="cls-1" d="M282.96,353.52l-.24.48.72-.48h-.48Z"/>
</svg>